{"glyphs":{"0":{"ha":1231,"x_min":0,"x_max":0,"o":"m 615 -14 b 1185 488 1000 -14 1185 165 b 615 986 1185 808 1000 986 b 46 488 229 986 46 810 b 615 -14 46 164 229 -14 z m 615 196 b 296 488 396 196 296 304 b 615 776 296 669 396 776 b 935 488 835 776 935 668 b 615 196 935 306 835 196 z "},"1":{"ha":1036,"x_min":0,"x_max":0,"o":"m 643 210 l 643 972 l 393 972 b 60 786 393 786 203 786 l 60 575 b 396 668 161 575 290 575 l 394 210 l 60 210 l 60 0 l 976 0 l 976 210 z "},"2":{"ha":1194,"x_min":0,"x_max":0,"o":"m 1149 681 b 618 986 1149 922 953 986 b 68 590 296 986 68 914 l 318 590 b 632 776 318 744 417 776 b 899 661 847 776 899 742 b 46 126 899 440 46 531 l 46 0 l 1135 0 l 1135 210 l 396 210 b 1149 681 457 403 1149 304 z "},"3":{"ha":1194,"x_min":0,"x_max":0,"o":"m 999 486 b 1149 699 1092 531 1149 597 b 611 986 1149 914 953 986 b 46 604 274 986 46 914 l 296 604 b 625 776 296 751 388 776 b 899 667 840 776 899 751 b 486 561 899 569 817 561 l 486 411 b 899 306 824 411 899 403 b 625 196 899 213 824 196 b 296 368 411 196 296 213 l 46 368 b 611 -14 46 58 274 -14 b 1149 274 953 -14 1149 58 b 999 486 1149 375 1092 442 z "},"4":{"ha":1250,"x_min":0,"x_max":0,"o":"m 1190 369 l 996 369 l 996 972 l 746 972 l 60 369 l 60 158 l 746 158 l 746 0 l 996 0 l 996 158 l 1190 158 z m 329 369 l 746 722 l 746 369 z "},"5":{"ha":1194,"x_min":0,"x_max":0,"o":"m 749 656 b 343 567 590 656 486 628 l 406 774 l 1079 774 l 1079 972 l 219 972 l 94 467 l 300 426 b 658 513 467 493 563 513 b 899 357 849 513 899 449 b 625 196 899 258 832 196 b 296 338 411 196 296 228 l 46 338 b 618 -14 46 50 296 -14 b 1149 329 943 -14 1149 88 b 749 656 1149 538 1000 656 z "},"6":{"ha":1231,"x_min":0,"x_max":0,"o":"m 703 656 b 315 550 519 656 390 608 b 646 788 340 747 449 788 b 1106 729 826 788 968 756 l 1106 928 b 585 986 988 953 826 986 b 60 463 299 986 60 865 b 643 -14 60 149 226 -14 b 1171 326 986 -14 1171 100 b 703 656 1171 561 986 656 z m 615 185 b 310 347 394 185 310 246 b 615 508 310 450 401 508 b 921 347 853 508 921 449 b 615 185 921 246 851 185 z "},"7":{"ha":1088,"x_min":0,"x_max":0,"o":"m 28 972 l 28 763 l 714 763 b 242 0 360 568 242 250 l 492 0 b 1060 763 492 250 664 568 l 1060 972 z "},"8":{"ha":1231,"x_min":0,"x_max":0,"o":"m 982 551 b 1088 731 1051 593 1088 653 b 615 986 1088 906 950 986 b 143 731 279 986 143 906 b 249 551 143 653 179 593 b 46 289 107 501 46 413 b 615 -14 46 93 182 -14 b 1185 289 1047 -14 1185 94 b 982 551 1185 413 1122 501 z m 615 806 b 861 711 807 806 861 779 b 615 617 861 643 807 617 b 369 711 422 617 369 643 b 615 806 369 779 424 806 z m 615 179 b 296 318 371 179 296 224 b 615 454 296 411 369 454 b 935 318 861 454 935 410 b 615 179 935 224 860 179 z "},"9":{"ha":1203,"x_min":0,"x_max":0,"o":"m 574 986 b 46 646 231 986 46 872 b 514 317 46 411 231 317 b 901 422 697 317 826 364 b 571 185 876 225 768 185 b 111 243 390 185 249 217 l 111 44 b 632 -14 229 19 390 -14 b 1157 510 918 -14 1157 107 b 574 986 1157 824 990 986 z m 601 464 b 296 625 364 464 296 524 b 601 788 296 726 365 788 b 907 625 822 788 907 726 b 601 464 907 522 815 464 z "},"A":{"ha":1433,"x_min":0,"x_max":0,"o":"m 1111 0 l 1388 0 l 885 972 l 547 972 l 46 0 l 321 0 l 425 207 l 1007 207 z m 518 393 l 717 788 l 914 393 z "},"Á":{"ha":1433,"x_min":0,"x_max":0,"o":"m 986 1361 l 446 1250 l 446 1086 l 986 1197 z m 1111 0 l 1388 0 l 885 972 l 547 972 l 46 0 l 321 0 l 425 207 l 1007 207 z m 518 393 l 717 788 l 914 393 z "},"Ă":{"ha":1433,"x_min":0,"x_max":0,"o":"m 717 1065 b 1032 1363 889 1065 1032 1121 l 881 1363 b 717 1208 881 1250 819 1208 b 551 1363 614 1208 551 1250 l 401 1363 b 717 1065 401 1121 544 1065 z m 1111 0 l 1388 0 l 885 972 l 547 972 l 46 0 l 321 0 l 425 207 l 1007 207 z m 518 393 l 717 788 l 914 393 z "},"Â":{"ha":1433,"x_min":0,"x_max":0,"o":"m 1004 1086 l 1004 1250 l 717 1361 l 429 1250 l 429 1086 l 717 1197 z m 1111 0 l 1388 0 l 885 972 l 547 972 l 46 0 l 321 0 l 425 207 l 1007 207 z m 518 393 l 717 788 l 914 393 z "},"Ä":{"ha":1433,"x_min":0,"x_max":0,"o":"m 660 1311 l 414 1311 l 414 1108 l 660 1108 z m 1021 1311 l 775 1311 l 775 1108 l 1021 1108 z m 1111 0 l 1388 0 l 885 972 l 547 972 l 46 0 l 321 0 l 425 207 l 1007 207 z m 518 393 l 717 788 l 914 393 z "},"À":{"ha":1433,"x_min":0,"x_max":0,"o":"m 986 1250 l 446 1361 l 446 1197 l 986 1086 z m 1111 0 l 1388 0 l 885 972 l 547 972 l 46 0 l 321 0 l 425 207 l 1007 207 z m 518 393 l 717 788 l 914 393 z "},"Ā":{"ha":1433,"x_min":0,"x_max":0,"o":"m 1042 1264 l 390 1264 l 390 1100 l 1042 1100 z m 1111 0 l 1388 0 l 885 972 l 547 972 l 46 0 l 321 0 l 425 207 l 1007 207 z m 518 393 l 717 788 l 914 393 z "},"Ą":{"ha":1433,"x_min":0,"x_max":0,"o":"m 1224 -87 b 1289 0 1224 -51 1260 -24 l 1388 0 l 885 972 l 547 972 l 46 0 l 321 0 l 425 207 l 1007 207 l 1111 0 l 1157 0 b 1046 -157 1086 -46 1046 -92 b 1446 -319 1046 -293 1186 -319 l 1446 -157 b 1224 -87 1331 -157 1224 -157 z m 518 393 l 717 788 l 914 393 z "},"Å":{"ha":1433,"x_min":0,"x_max":0,"o":"m 717 1071 b 1008 1254 933 1071 1008 1139 b 717 1438 1008 1369 933 1438 b 425 1254 499 1438 425 1369 b 717 1071 425 1139 499 1071 z m 717 1328 b 857 1254 807 1328 857 1310 b 717 1181 857 1199 807 1181 b 575 1254 626 1181 575 1199 b 717 1328 575 1310 626 1328 z m 1111 0 l 1388 0 l 885 972 l 547 972 l 46 0 l 321 0 l 425 207 l 1007 207 z m 518 393 l 717 788 l 914 393 z "},"Ã":{"ha":1433,"x_min":0,"x_max":0,"o":"m 593 1208 b 901 1071 704 1208 742 1071 b 1119 1363 1057 1071 1119 1208 l 917 1363 b 839 1239 917 1283 899 1239 b 532 1376 728 1239 690 1376 b 314 1085 375 1376 314 1239 l 517 1085 b 593 1208 517 1164 535 1208 z m 1111 0 l 1388 0 l 885 972 l 547 972 l 46 0 l 321 0 l 425 207 l 1007 207 z m 518 393 l 717 788 l 914 393 z "},"Æ":{"ha":1949,"x_min":0,"x_max":0,"o":"m 1903 774 l 1903 972 l 519 972 l 46 0 l 325 0 l 424 206 l 875 206 l 875 0 l 1903 0 l 1903 199 l 1125 199 l 1125 396 l 1903 396 l 1903 576 l 1125 576 l 1125 774 z m 875 779 l 875 393 l 514 393 l 699 779 z "},"B":{"ha":1311,"x_min":0,"x_max":0,"o":"m 1128 528 b 1204 717 1176 582 1204 649 b 915 972 1204 860 1136 972 l 60 972 l 60 0 l 949 0 b 1265 283 1169 0 1265 119 b 1128 528 1265 396 1211 476 z m 310 792 l 825 792 b 954 692 893 792 954 792 b 826 590 954 590 893 590 l 825 590 l 310 590 z m 888 193 l 310 193 l 310 399 l 888 399 b 1015 296 954 399 1015 399 b 888 193 1015 193 954 193 z "},"C":{"ha":1310,"x_min":0,"x_max":0,"o":"m 46 488 b 657 -14 46 164 229 -14 b 1264 417 1044 -14 1239 135 l 1010 417 b 657 196 986 258 864 196 b 296 488 404 196 296 288 b 657 776 296 686 403 776 b 1010 558 865 776 986 715 l 1264 558 b 657 986 1239 839 1044 986 b 46 488 229 986 46 810 z "},"Ć":{"ha":1310,"x_min":0,"x_max":0,"o":"m 385 1250 l 385 1086 l 925 1197 l 925 1361 z m 46 488 b 657 -14 46 164 229 -14 b 1264 417 1044 -14 1239 135 l 1010 417 b 657 196 986 258 864 196 b 296 488 404 196 296 288 b 657 776 296 686 403 776 b 1010 558 865 776 986 715 l 1264 558 b 657 986 1239 839 1044 986 b 46 488 229 986 46 810 z "},"Č":{"ha":1310,"x_min":0,"x_max":0,"o":"m 943 1200 l 943 1364 l 656 1253 l 368 1364 l 368 1200 l 656 1089 z m 657 196 b 296 488 404 196 296 288 b 657 776 296 686 403 776 b 1010 558 865 776 986 715 l 1264 558 b 657 986 1239 839 1044 986 b 46 488 229 986 46 810 b 657 -14 46 164 229 -14 b 1264 417 1044 -14 1239 135 l 1010 417 b 657 196 986 258 864 196 z "},"Ç":{"ha":1310,"x_min":0,"x_max":0,"o":"m 657 196 b 296 488 404 196 296 288 b 657 776 296 686 403 776 b 1010 558 865 776 986 715 l 1264 558 b 657 986 1239 839 1044 986 b 46 488 229 986 46 810 b 574 -11 46 186 206 11 l 558 -49 l 640 -129 b 785 -149 749 -104 785 -115 b 525 -201 785 -201 707 -228 l 525 -319 b 964 -161 739 -346 964 -319 b 718 -65 964 -26 801 -39 l 735 -11 b 1264 417 1071 7 1240 154 l 1010 417 b 657 196 986 258 864 196 z "},"Ċ":{"ha":1310,"x_min":0,"x_max":0,"o":"m 521 1311 l 521 1108 l 790 1108 l 790 1311 z m 46 488 b 657 -14 46 164 229 -14 b 1264 417 1044 -14 1239 135 l 1010 417 b 657 196 986 258 864 196 b 296 488 404 196 296 288 b 657 776 296 686 403 776 b 1010 558 865 776 986 715 l 1264 558 b 657 986 1239 839 1044 986 b 46 488 229 986 46 810 z "},"D":{"ha":1283,"x_min":0,"x_max":0,"o":"m 765 972 l 60 972 l 60 0 l 765 0 b 1238 486 1017 0 1238 156 b 765 972 1238 817 1017 972 z m 671 210 l 310 210 l 310 763 l 671 763 b 988 486 860 763 988 722 b 671 210 988 250 860 210 z "},"Ð":{"ha":1390,"x_min":0,"x_max":0,"o":"m 867 972 l 161 972 l 161 568 l 60 568 l 60 404 l 161 404 l 161 0 l 867 0 b 1339 486 1118 0 1339 156 b 867 972 1339 817 1118 972 z m 772 210 l 411 210 l 411 404 l 726 404 l 726 568 l 411 568 l 411 763 l 772 763 b 1089 486 961 763 1089 722 b 772 210 1089 250 961 210 z "},"Ď":{"ha":1283,"x_min":0,"x_max":0,"o":"m 839 1200 l 839 1364 l 551 1253 l 264 1364 l 264 1200 l 551 1089 z m 765 972 l 60 972 l 60 0 l 765 0 b 1238 486 1017 0 1238 156 b 765 972 1238 817 1017 972 z m 671 210 l 310 210 l 310 763 l 671 763 b 988 486 860 763 988 722 b 671 210 988 250 860 210 z "},"Đ":{"ha":1390,"x_min":0,"x_max":0,"o":"m 867 972 l 161 972 l 161 568 l 60 568 l 60 404 l 161 404 l 161 0 l 867 0 b 1339 486 1118 0 1339 156 b 867 972 1339 817 1118 972 z m 772 210 l 411 210 l 411 404 l 726 404 l 726 568 l 411 568 l 411 763 l 772 763 b 1089 486 961 763 1089 722 b 772 210 1089 250 961 210 z "},"E":{"ha":1133,"x_min":0,"x_max":0,"o":"m 1088 774 l 1088 972 l 60 972 l 60 0 l 1088 0 l 1088 199 l 310 199 l 310 396 l 1088 396 l 1088 576 l 310 576 l 310 774 z "},"É":{"ha":1133,"x_min":0,"x_max":0,"o":"m 843 1361 l 303 1250 l 303 1086 l 843 1197 z m 1088 774 l 1088 972 l 60 972 l 60 0 l 1088 0 l 1088 199 l 310 199 l 310 396 l 1088 396 l 1088 576 l 310 576 l 310 774 z "},"Ě":{"ha":1133,"x_min":0,"x_max":0,"o":"m 861 1200 l 861 1364 l 574 1253 l 286 1364 l 286 1200 l 574 1089 z m 1088 774 l 1088 972 l 60 972 l 60 0 l 1088 0 l 1088 199 l 310 199 l 310 396 l 1088 396 l 1088 576 l 310 576 l 310 774 z "},"Ê":{"ha":1133,"x_min":0,"x_max":0,"o":"m 861 1086 l 861 1250 l 574 1361 l 286 1250 l 286 1086 l 574 1197 z m 1088 774 l 1088 972 l 60 972 l 60 0 l 1088 0 l 1088 199 l 310 199 l 310 396 l 1088 396 l 1088 576 l 310 576 l 310 774 z "},"Ë":{"ha":1133,"x_min":0,"x_max":0,"o":"m 517 1311 l 271 1311 l 271 1108 l 517 1108 z m 878 1311 l 632 1311 l 632 1108 l 878 1108 z m 1088 774 l 1088 972 l 60 972 l 60 0 l 1088 0 l 1088 199 l 310 199 l 310 396 l 1088 396 l 1088 576 l 310 576 l 310 774 z "},"Ė":{"ha":1133,"x_min":0,"x_max":0,"o":"m 708 1311 l 439 1311 l 439 1108 l 708 1108 z m 1088 774 l 1088 972 l 60 972 l 60 0 l 1088 0 l 1088 199 l 310 199 l 310 396 l 1088 396 l 1088 576 l 310 576 l 310 774 z "},"È":{"ha":1133,"x_min":0,"x_max":0,"o":"m 843 1250 l 303 1361 l 303 1197 l 843 1086 z m 1088 774 l 1088 972 l 60 972 l 60 0 l 1088 0 l 1088 199 l 310 199 l 310 396 l 1088 396 l 1088 576 l 310 576 l 310 774 z "},"Ē":{"ha":1133,"x_min":0,"x_max":0,"o":"m 899 1264 l 247 1264 l 247 1100 l 899 1100 z m 1088 774 l 1088 972 l 60 972 l 60 0 l 1088 0 l 1088 199 l 310 199 l 310 396 l 1088 396 l 1088 576 l 310 576 l 310 774 z "},"Ę":{"ha":1133,"x_min":0,"x_max":0,"o":"m 897 -87 b 963 0 897 -51 933 -24 l 1088 0 l 1088 199 l 310 199 l 310 396 l 1088 396 l 1088 576 l 310 576 l 310 774 l 1088 774 l 1088 972 l 60 972 l 60 0 l 831 0 b 719 -157 760 -46 719 -92 b 1119 -319 719 -293 860 -319 l 1119 -157 b 897 -87 1004 -157 897 -157 z "},"F":{"ha":1133,"x_min":0,"x_max":0,"o":"m 1088 763 l 1088 972 l 60 972 l 60 0 l 310 0 l 310 304 l 1004 304 l 1004 515 l 310 515 l 310 763 z "},"G":{"ha":1310,"x_min":0,"x_max":0,"o":"m 647 358 l 1010 358 b 665 179 1004 285 907 179 b 296 481 342 179 296 363 b 665 776 296 597 340 776 b 1010 593 929 776 996 667 l 1264 593 b 665 986 1249 835 1054 986 b 46 486 265 986 46 808 b 624 -14 46 164 265 -14 b 1068 153 831 -14 976 53 l 1079 0 l 1264 0 l 1264 521 l 647 521 z "},"Ğ":{"ha":1310,"x_min":0,"x_max":0,"o":"m 656 1065 b 971 1363 828 1065 971 1121 l 819 1363 b 656 1208 819 1250 758 1208 b 490 1363 553 1208 490 1250 l 340 1363 b 656 1065 340 1121 483 1065 z m 647 358 l 1010 358 b 665 179 1004 285 907 179 b 296 481 342 179 296 363 b 665 776 296 597 340 776 b 1010 593 929 776 996 667 l 1264 593 b 665 986 1249 835 1054 986 b 46 486 265 986 46 808 b 624 -14 46 164 265 -14 b 1068 153 831 -14 976 53 l 1079 0 l 1264 0 l 1264 521 l 647 521 z "},"Ģ":{"ha":1310,"x_min":0,"x_max":0,"o":"m 647 358 l 1010 358 b 665 179 1004 285 907 179 b 296 481 342 179 296 363 b 665 776 296 597 340 776 b 1010 593 929 776 996 667 l 1264 593 b 665 986 1249 835 1054 986 b 46 486 265 986 46 808 b 624 -14 46 164 265 -14 b 1068 153 831 -14 976 53 l 1079 0 l 1264 0 l 1264 521 l 647 521 z m 549 -312 l 626 -312 l 549 -465 l 651 -465 l 763 -312 l 763 -162 l 549 -162 z "},"Ġ":{"ha":1310,"x_min":0,"x_max":0,"o":"m 790 1311 l 521 1311 l 521 1108 l 790 1108 z m 647 358 l 1010 358 b 665 179 1004 285 907 179 b 296 481 342 179 296 363 b 665 776 296 597 340 776 b 1010 593 929 776 996 667 l 1264 593 b 665 986 1249 835 1054 986 b 46 486 265 986 46 808 b 624 -14 46 164 265 -14 b 1068 153 831 -14 976 53 l 1079 0 l 1264 0 l 1264 521 l 647 521 z "},"H":{"ha":1411,"x_min":0,"x_max":0,"o":"m 1101 972 l 1101 592 l 310 592 l 310 972 l 60 972 l 60 0 l 310 0 l 310 381 l 1101 381 l 1101 0 l 1351 0 l 1351 972 z "},"Ħ":{"ha":1411,"x_min":0,"x_max":0,"o":"m 1400 874 l 1351 874 l 1351 972 l 1101 972 l 1101 874 l 310 874 l 310 972 l 60 972 l 60 874 l 11 874 l 11 710 l 60 710 l 60 0 l 310 0 l 310 381 l 1101 381 l 1101 0 l 1351 0 l 1351 710 l 1400 710 z m 1101 592 l 310 592 l 310 710 l 1101 710 z "},"I":{"ha":369,"x_min":0,"x_max":0,"o":"m 310 972 l 60 972 l 60 0 l 310 0 z "},"Í":{"ha":369,"x_min":0,"x_max":0,"o":"m -86 1250 l -86 1086 l 454 1197 l 454 1361 z m 310 972 l 60 972 l 60 0 l 310 0 z "},"Î":{"ha":369,"x_min":0,"x_max":0,"o":"m 185 1361 l -103 1250 l -103 1086 l 185 1197 l 472 1086 l 472 1250 z m 60 0 l 310 0 l 310 972 l 60 972 z "},"Ï":{"ha":369,"x_min":0,"x_max":0,"o":"m -118 1311 l -118 1108 l 128 1108 l 128 1311 z m 243 1311 l 243 1108 l 489 1108 l 489 1311 z m 310 972 l 60 972 l 60 0 l 310 0 z "},"İ":{"ha":369,"x_min":0,"x_max":0,"o":"m 50 1311 l 50 1108 l 319 1108 l 319 1311 z m 310 972 l 60 972 l 60 0 l 310 0 z "},"Ì":{"ha":369,"x_min":0,"x_max":0,"o":"m 454 1250 l -86 1361 l -86 1197 l 454 1086 z m 310 972 l 60 972 l 60 0 l 310 0 z "},"Ī":{"ha":369,"x_min":0,"x_max":0,"o":"m -142 1264 l -142 1100 l 510 1100 l 510 1264 z m 310 972 l 60 972 l 60 0 l 310 0 z "},"Į":{"ha":369,"x_min":0,"x_max":0,"o":"m 215 -87 b 281 0 215 -51 251 -24 l 310 0 l 310 972 l 60 972 l 60 0 l 149 0 b 38 -157 78 -46 38 -92 b 438 -319 38 -293 178 -319 l 438 -157 b 215 -87 322 -157 215 -157 z "},"J":{"ha":1286,"x_min":0,"x_max":0,"o":"m 1226 972 l 515 972 l 515 763 l 976 763 l 976 488 b 643 196 976 353 939 196 b 310 488 347 196 310 351 l 60 488 b 643 -14 60 149 243 -14 b 1226 488 1042 -14 1226 150 z "},"K":{"ha":1428,"x_min":0,"x_max":0,"o":"m 1382 972 l 1003 972 l 310 468 l 310 972 l 60 972 l 60 0 l 310 0 l 310 186 l 608 404 l 1036 0 l 1382 0 l 793 540 z "},"Ķ":{"ha":1428,"x_min":0,"x_max":0,"o":"m 1382 972 l 1003 972 l 310 468 l 310 972 l 60 972 l 60 0 l 310 0 l 310 186 l 608 404 l 1036 0 l 1382 0 l 793 540 z m 614 -312 l 692 -312 l 614 -465 l 717 -465 l 828 -312 l 828 -162 l 614 -162 z "},"L":{"ha":1106,"x_min":0,"x_max":0,"o":"m 310 210 l 310 972 l 60 972 l 60 0 l 1060 0 l 1060 210 z "},"Ĺ":{"ha":1106,"x_min":0,"x_max":0,"o":"m 600 1361 l 60 1250 l 60 1086 l 600 1197 z m 310 210 l 310 972 l 60 972 l 60 0 l 1060 0 l 1060 210 z "},"Ľ":{"ha":1106,"x_min":0,"x_max":0,"o":"m 618 1200 l 618 1364 l 331 1253 l 43 1364 l 43 1200 l 331 1089 z m 310 210 l 310 972 l 60 972 l 60 0 l 1060 0 l 1060 210 z "},"Ļ":{"ha":1106,"x_min":0,"x_max":0,"o":"m 310 210 l 310 972 l 60 972 l 60 0 l 1060 0 l 1060 210 z m 453 -312 l 531 -312 l 453 -465 l 556 -465 l 667 -312 l 667 -162 l 453 -162 z "},"Ł":{"ha":1235,"x_min":0,"x_max":0,"o":"m 425 210 l 425 450 l 785 599 l 785 801 l 425 653 l 425 972 l 175 972 l 175 550 l 60 503 l 60 300 l 175 347 l 175 0 l 1175 0 l 1175 210 z "},"M":{"ha":1608,"x_min":0,"x_max":0,"o":"m 1549 972 l 1211 972 l 804 286 l 397 972 l 60 972 l 60 0 l 310 0 l 310 667 l 714 0 l 894 0 l 1299 667 l 1299 0 l 1549 0 z "},"N":{"ha":1372,"x_min":0,"x_max":0,"o":"m 1063 972 l 1063 242 l 399 972 l 60 972 l 60 0 l 310 0 l 310 729 l 972 0 l 1313 0 l 1313 972 z "},"Ń":{"ha":1372,"x_min":0,"x_max":0,"o":"m 956 1361 l 415 1250 l 415 1086 l 956 1197 z m 1063 972 l 1063 242 l 399 972 l 60 972 l 60 0 l 310 0 l 310 729 l 972 0 l 1313 0 l 1313 972 z "},"Ň":{"ha":1372,"x_min":0,"x_max":0,"o":"m 974 1200 l 974 1364 l 686 1253 l 399 1364 l 399 1200 l 686 1089 z m 1063 972 l 1063 242 l 399 972 l 60 972 l 60 0 l 310 0 l 310 729 l 972 0 l 1313 0 l 1313 972 z "},"Ņ":{"ha":1372,"x_min":0,"x_max":0,"o":"m 1063 972 l 1063 242 l 399 972 l 60 972 l 60 0 l 310 0 l 310 729 l 972 0 l 1313 0 l 1313 972 z m 579 -312 l 657 -312 l 579 -465 l 682 -465 l 793 -312 l 793 -162 l 579 -162 z "},"Ŋ":{"ha":1372,"x_min":0,"x_max":0,"o":"m 1063 972 l 1063 242 l 399 972 l 60 972 l 60 0 l 310 0 l 310 729 l 972 0 l 1063 0 b 885 -176 1063 -111 1032 -176 b 681 -154 790 -176 749 -168 l 681 -346 b 926 -375 760 -365 844 -375 b 1313 0 1199 -375 1313 -240 l 1313 972 z "},"Ñ":{"ha":1372,"x_min":0,"x_max":0,"o":"m 563 1208 b 871 1071 674 1208 711 1071 b 1089 1363 1026 1071 1089 1208 l 886 1363 b 808 1239 886 1283 868 1239 b 501 1376 697 1239 660 1376 b 283 1085 344 1376 283 1239 l 486 1085 b 563 1208 486 1164 504 1208 z m 1063 972 l 1063 242 l 399 972 l 60 972 l 60 0 l 310 0 l 310 729 l 972 0 l 1313 0 l 1313 972 z "},"O":{"ha":1314,"x_min":0,"x_max":0,"o":"m 657 -14 b 1268 488 1083 -14 1268 165 b 657 986 1268 808 1083 986 b 46 488 229 986 46 810 b 657 -14 46 164 229 -14 z m 657 196 b 296 488 397 196 296 288 b 657 776 296 686 396 776 b 1018 488 918 776 1018 685 b 657 196 1018 289 917 196 z "},"Ó":{"ha":1314,"x_min":0,"x_max":0,"o":"m 386 1250 l 386 1086 l 926 1197 l 926 1361 z m 657 -14 b 1268 488 1083 -14 1268 165 b 657 986 1268 808 1083 986 b 46 488 229 986 46 810 b 657 -14 46 164 229 -14 z m 657 196 b 296 488 397 196 296 288 b 657 776 296 686 396 776 b 1018 488 918 776 1018 685 b 657 196 1018 289 917 196 z "},"Ô":{"ha":1314,"x_min":0,"x_max":0,"o":"m 944 1086 l 944 1250 l 657 1361 l 369 1250 l 369 1086 l 657 1197 z m 657 986 b 46 488 229 986 46 810 b 657 -14 46 164 229 -14 b 1268 488 1083 -14 1268 165 b 657 986 1268 808 1083 986 z m 657 196 b 296 488 397 196 296 288 b 657 776 296 686 396 776 b 1018 488 918 776 1018 685 b 657 196 1018 289 917 196 z "},"Ö":{"ha":1314,"x_min":0,"x_max":0,"o":"m 354 1311 l 354 1108 l 600 1108 l 600 1311 z m 715 1311 l 715 1108 l 961 1108 l 961 1311 z m 657 -14 b 1268 488 1083 -14 1268 165 b 657 986 1268 808 1083 986 b 46 488 229 986 46 810 b 657 -14 46 164 229 -14 z m 657 196 b 296 488 397 196 296 288 b 657 776 296 686 396 776 b 1018 488 918 776 1018 685 b 657 196 1018 289 917 196 z "},"Ò":{"ha":1314,"x_min":0,"x_max":0,"o":"m 926 1250 l 386 1361 l 386 1197 l 926 1086 z m 657 -14 b 1268 488 1083 -14 1268 165 b 657 986 1268 808 1083 986 b 46 488 229 986 46 810 b 657 -14 46 164 229 -14 z m 657 196 b 296 488 397 196 296 288 b 657 776 296 686 396 776 b 1018 488 918 776 1018 685 b 657 196 1018 289 917 196 z "},"Ő":{"ha":1314,"x_min":0,"x_max":0,"o":"m 328 1267 l 328 1097 l 615 1208 l 615 1378 z m 699 1267 l 699 1097 l 986 1208 l 986 1378 z m 657 -14 b 1268 488 1083 -14 1268 165 b 657 986 1268 808 1083 986 b 46 488 229 986 46 810 b 657 -14 46 164 229 -14 z m 657 196 b 296 488 397 196 296 288 b 657 776 296 686 396 776 b 1018 488 918 776 1018 685 b 657 196 1018 289 917 196 z "},"Ō":{"ha":1314,"x_min":0,"x_max":0,"o":"m 331 1264 l 331 1100 l 982 1100 l 982 1264 z m 657 -14 b 1268 488 1083 -14 1268 165 b 657 986 1268 808 1083 986 b 46 488 229 986 46 810 b 657 -14 46 164 229 -14 z m 657 196 b 296 488 397 196 296 288 b 657 776 296 686 396 776 b 1018 488 918 776 1018 685 b 657 196 1018 289 917 196 z "},"Ø":{"ha":1314,"x_min":0,"x_max":0,"o":"m 901 961 l 940 1090 l 735 1090 l 703 985 b 657 986 689 986 672 986 b 46 488 229 986 46 810 b 413 11 46 235 158 71 l 374 -118 l 579 -118 l 611 -12 b 657 -14 625 -14 642 -14 b 1268 488 1083 -14 1268 165 b 901 961 1268 739 1156 901 z m 296 488 b 640 776 296 682 392 772 l 474 218 b 296 488 349 256 296 344 z m 674 196 l 840 754 b 1018 488 967 717 1018 629 b 674 196 1018 293 921 200 z "},"Õ":{"ha":1314,"x_min":0,"x_max":0,"o":"m 254 1085 l 457 1085 b 533 1208 457 1164 475 1208 b 842 1071 644 1208 682 1071 b 1060 1363 997 1071 1060 1208 l 857 1363 b 779 1239 857 1283 839 1239 b 472 1376 668 1239 631 1376 b 254 1085 315 1376 254 1239 z m 657 -14 b 1268 488 1083 -14 1268 165 b 657 986 1268 808 1083 986 b 46 488 229 986 46 810 b 657 -14 46 164 229 -14 z m 657 196 b 296 488 397 196 296 288 b 657 776 296 686 396 776 b 1018 488 918 776 1018 685 b 657 196 1018 289 917 196 z "},"Œ":{"ha":2160,"x_min":0,"x_max":0,"o":"m 2114 774 l 2114 972 l 1086 972 l 1086 885 b 657 986 988 951 846 986 b 46 488 229 986 46 810 b 657 -14 46 164 229 -14 b 1086 89 846 -14 988 21 l 1086 0 l 2114 0 l 2114 199 l 1336 199 l 1336 396 l 2114 396 l 2114 576 l 1336 576 l 1336 774 z m 657 196 b 296 488 397 196 296 288 b 657 776 296 686 396 776 b 1018 488 918 776 1018 685 b 657 196 1018 289 917 196 z "},"P":{"ha":1242,"x_min":0,"x_max":0,"o":"m 824 972 l 60 972 l 60 0 l 310 0 l 310 260 l 824 260 b 1196 615 1044 260 1196 399 b 824 972 1196 832 1044 972 z m 754 469 l 310 469 l 310 763 l 754 763 b 946 615 829 763 946 763 b 754 469 946 469 829 469 z "},"Þ":{"ha":1242,"x_min":0,"x_max":0,"o":"m 824 844 l 310 844 l 310 972 l 60 972 l 60 0 l 310 0 l 310 132 l 824 132 b 1196 488 1044 132 1196 271 b 824 844 1196 704 1044 844 z m 754 342 l 310 342 l 310 633 l 754 633 b 946 488 829 633 946 633 b 754 342 946 342 829 342 z "},"Q":{"ha":1411,"x_min":0,"x_max":0,"o":"m 1351 53 l 1199 206 b 1268 488 1246 282 1268 376 b 657 986 1268 808 1083 986 b 46 488 229 986 46 810 b 657 -14 46 164 229 -14 b 1007 44 800 -14 915 6 l 1175 -124 z m 296 488 b 657 776 296 686 396 776 b 1018 488 918 776 1018 685 b 657 196 1018 289 917 196 b 296 488 397 196 296 288 z "},"R":{"ha":1242,"x_min":0,"x_max":0,"o":"m 1196 615 b 824 972 1196 832 1044 972 l 60 972 l 60 0 l 310 0 l 310 260 l 713 260 l 869 0 l 1164 0 l 985 289 b 1196 615 1115 340 1196 457 z m 310 763 l 754 763 b 946 615 829 763 946 763 b 754 469 946 469 829 469 l 310 469 z "},"Ŕ":{"ha":1242,"x_min":0,"x_max":0,"o":"m 865 1361 l 325 1250 l 325 1086 l 865 1197 z m 1196 615 b 824 972 1196 832 1044 972 l 60 972 l 60 0 l 310 0 l 310 260 l 713 260 l 869 0 l 1164 0 l 985 289 b 1196 615 1115 340 1196 457 z m 310 763 l 754 763 b 946 615 829 763 946 763 b 754 469 946 469 829 469 l 310 469 z "},"Ř":{"ha":1242,"x_min":0,"x_max":0,"o":"m 883 1200 l 883 1364 l 596 1253 l 308 1364 l 308 1200 l 596 1089 z m 1196 615 b 824 972 1196 832 1044 972 l 60 972 l 60 0 l 310 0 l 310 260 l 713 260 l 869 0 l 1164 0 l 985 289 b 1196 615 1115 340 1196 457 z m 310 763 l 754 763 b 946 615 829 763 946 763 b 754 469 946 469 829 469 l 310 469 z "},"Ŗ":{"ha":1242,"x_min":0,"x_max":0,"o":"m 1196 615 b 824 972 1196 832 1044 972 l 60 972 l 60 0 l 310 0 l 310 260 l 713 260 l 869 0 l 1164 0 l 985 289 b 1196 615 1115 340 1196 457 z m 310 763 l 754 763 b 946 615 829 763 946 763 b 754 469 946 469 829 469 l 310 469 z m 489 -312 l 567 -312 l 489 -465 l 592 -465 l 703 -312 l 703 -162 l 489 -162 z "},"S":{"ha":1333,"x_min":0,"x_max":0,"o":"m 46 335 b 682 -14 46 54 283 -14 b 1288 299 1042 -14 1288 39 b 667 586 1288 544 1050 565 b 325 692 383 603 325 617 b 629 788 325 764 383 788 b 996 654 889 788 996 761 l 1246 654 b 657 986 1246 894 1024 986 b 75 704 293 986 75 918 b 667 400 75 486 243 419 b 1038 290 982 385 1038 371 b 696 185 1038 214 958 185 b 296 335 379 185 296 232 z "},"Ś":{"ha":1333,"x_min":0,"x_max":0,"o":"m 396 1250 l 396 1086 l 936 1197 l 936 1361 z m 46 335 b 682 -14 46 54 283 -14 b 1288 299 1042 -14 1288 39 b 667 586 1288 544 1050 565 b 325 692 383 603 325 617 b 629 788 325 764 383 788 b 996 654 889 788 996 761 l 1246 654 b 657 986 1246 894 1024 986 b 75 704 293 986 75 918 b 667 400 75 486 243 419 b 1038 290 982 385 1038 371 b 696 185 1038 214 958 185 b 296 335 379 185 296 232 z "},"Š":{"ha":1333,"x_min":0,"x_max":0,"o":"m 954 1200 l 954 1364 l 667 1253 l 379 1364 l 379 1200 l 667 1089 z m 667 586 b 325 692 383 603 325 617 b 629 788 325 764 383 788 b 996 654 889 788 996 761 l 1246 654 b 657 986 1246 894 1024 986 b 75 704 293 986 75 918 b 667 400 75 486 243 419 b 1038 290 982 385 1038 371 b 696 185 1038 214 958 185 b 296 335 379 185 296 232 l 46 335 b 682 -14 46 54 283 -14 b 1288 299 1042 -14 1288 39 b 667 586 1288 544 1050 565 z "},"Ş":{"ha":1333,"x_min":0,"x_max":0,"o":"m 1288 299 b 667 586 1288 544 1050 565 b 325 692 383 603 325 617 b 629 788 325 764 383 788 b 996 654 889 788 996 761 l 1246 654 b 657 986 1246 894 1024 986 b 75 704 293 986 75 918 b 667 400 75 486 243 419 b 1038 290 982 385 1038 371 b 696 185 1038 214 958 185 b 296 335 379 185 296 232 l 46 335 b 583 -12 46 78 244 -1 l 569 -49 l 651 -129 b 796 -149 760 -104 796 -115 b 536 -201 796 -201 718 -228 l 536 -319 b 975 -161 750 -346 975 -319 b 729 -65 975 -26 813 -39 l 746 -14 b 1288 299 1071 -7 1288 54 z "},"Ș":{"ha":1333,"x_min":0,"x_max":0,"o":"m 46 335 b 682 -14 46 54 283 -14 b 1288 299 1042 -14 1288 39 b 667 586 1288 544 1050 565 b 325 692 383 603 325 617 b 629 788 325 764 383 788 b 996 654 889 788 996 761 l 1246 654 b 657 986 1246 894 1024 986 b 75 704 293 986 75 918 b 667 400 75 486 243 419 b 1038 290 982 385 1038 371 b 696 185 1038 214 958 185 b 296 335 379 185 296 232 z m 560 -162 l 560 -312 l 638 -312 l 560 -465 l 663 -465 l 774 -312 l 774 -162 z "},"T":{"ha":1286,"x_min":0,"x_max":0,"o":"m 1240 972 l 46 972 l 46 763 l 518 763 l 518 0 l 768 0 l 768 763 l 1240 763 z "},"Ŧ":{"ha":1286,"x_min":0,"x_max":0,"o":"m 1240 763 l 1240 972 l 46 972 l 46 763 l 518 763 l 518 485 l 297 485 l 297 321 l 518 321 l 518 0 l 768 0 l 768 321 l 964 321 l 964 485 l 768 485 l 768 763 z "},"Ť":{"ha":1286,"x_min":0,"x_max":0,"o":"m 931 1200 l 931 1364 l 643 1253 l 356 1364 l 356 1200 l 643 1089 z m 1240 972 l 46 972 l 46 763 l 518 763 l 518 0 l 768 0 l 768 763 l 1240 763 z "},"Ţ":{"ha":1286,"x_min":0,"x_max":0,"o":"m 768 0 l 768 763 l 1240 763 l 1240 972 l 46 972 l 46 763 l 518 763 l 518 0 l 565 0 l 546 -49 l 628 -129 b 772 -149 736 -104 772 -115 b 513 -201 772 -201 694 -228 l 513 -319 b 951 -161 726 -346 951 -319 b 706 -65 951 -26 789 -39 l 726 0 z "},"Ț":{"ha":1286,"x_min":0,"x_max":0,"o":"m 1240 972 l 46 972 l 46 763 l 518 763 l 518 0 l 768 0 l 768 763 l 1240 763 z m 536 -312 l 614 -312 l 536 -465 l 639 -465 l 750 -312 l 750 -162 l 536 -162 z "},"U":{"ha":1342,"x_min":0,"x_max":0,"o":"m 1282 488 l 1282 972 l 1032 972 l 1032 488 b 671 196 1032 353 994 196 b 310 488 347 196 310 351 l 310 972 l 60 972 l 60 488 b 671 -14 60 149 243 -14 b 1282 488 1097 -14 1282 150 z "},"Ú":{"ha":1342,"x_min":0,"x_max":0,"o":"m 400 1250 l 400 1086 l 940 1197 l 940 1361 z m 1282 488 l 1282 972 l 1032 972 l 1032 488 b 671 196 1032 353 994 196 b 310 488 347 196 310 351 l 310 972 l 60 972 l 60 488 b 671 -14 60 149 243 -14 b 1282 488 1097 -14 1282 150 z "},"Û":{"ha":1342,"x_min":0,"x_max":0,"o":"m 958 1086 l 958 1250 l 671 1361 l 383 1250 l 383 1086 l 671 1197 z m 1032 972 l 1032 488 b 671 196 1032 353 994 196 b 310 488 347 196 310 351 l 310 972 l 60 972 l 60 488 b 671 -14 60 149 243 -14 b 1282 488 1097 -14 1282 150 l 1282 972 z "},"Ü":{"ha":1342,"x_min":0,"x_max":0,"o":"m 368 1311 l 368 1108 l 614 1108 l 614 1311 z m 729 1311 l 729 1108 l 975 1108 l 975 1311 z m 1282 488 l 1282 972 l 1032 972 l 1032 488 b 671 196 1032 353 994 196 b 310 488 347 196 310 351 l 310 972 l 60 972 l 60 488 b 671 -14 60 149 243 -14 b 1282 488 1097 -14 1282 150 z "},"Ù":{"ha":1342,"x_min":0,"x_max":0,"o":"m 940 1250 l 400 1361 l 400 1197 l 940 1086 z m 1282 488 l 1282 972 l 1032 972 l 1032 488 b 671 196 1032 353 994 196 b 310 488 347 196 310 351 l 310 972 l 60 972 l 60 488 b 671 -14 60 149 243 -14 b 1282 488 1097 -14 1282 150 z "},"Ű":{"ha":1342,"x_min":0,"x_max":0,"o":"m 342 1267 l 342 1097 l 629 1208 l 629 1378 z m 713 1267 l 713 1097 l 1000 1208 l 1000 1378 z m 1282 488 l 1282 972 l 1032 972 l 1032 488 b 671 196 1032 353 994 196 b 310 488 347 196 310 351 l 310 972 l 60 972 l 60 488 b 671 -14 60 149 243 -14 b 1282 488 1097 -14 1282 150 z "},"Ū":{"ha":1342,"x_min":0,"x_max":0,"o":"m 344 1264 l 344 1100 l 996 1100 l 996 1264 z m 1282 488 l 1282 972 l 1032 972 l 1032 488 b 671 196 1032 353 994 196 b 310 488 347 196 310 351 l 310 972 l 60 972 l 60 488 b 671 -14 60 149 243 -14 b 1282 488 1097 -14 1282 150 z "},"Ų":{"ha":1342,"x_min":0,"x_max":0,"o":"m 1032 972 l 1032 488 b 671 196 1032 353 994 196 b 310 488 347 196 310 351 l 310 972 l 60 972 l 60 488 b 671 -14 60 149 243 -14 l 701 -14 b 610 -157 643 -56 610 -99 b 1010 -319 610 -293 750 -319 l 1010 -157 b 788 -87 894 -157 788 -157 b 850 -3 788 -53 821 -25 b 1282 488 1150 40 1282 201 l 1282 972 z "},"Ů":{"ha":1342,"x_min":0,"x_max":0,"o":"m 671 1071 b 963 1254 888 1071 963 1139 b 671 1438 963 1369 888 1438 b 379 1254 453 1438 379 1369 b 671 1071 379 1139 453 1071 z m 671 1181 b 529 1254 581 1181 529 1199 b 671 1328 529 1310 581 1328 b 811 1254 761 1328 811 1310 b 671 1181 811 1199 761 1181 z m 1282 488 l 1282 972 l 1032 972 l 1032 488 b 671 196 1032 353 994 196 b 310 488 347 196 310 351 l 310 972 l 60 972 l 60 488 b 671 -14 60 149 243 -14 b 1282 488 1097 -14 1282 150 z "},"V":{"ha":1433,"x_min":0,"x_max":0,"o":"m 1107 972 l 717 185 l 326 972 l 46 972 l 546 0 l 888 0 l 1388 972 z "},"W":{"ha":2122,"x_min":0,"x_max":0,"o":"m 1806 972 l 1519 207 l 1214 972 l 907 972 l 603 208 l 315 972 l 46 972 l 429 0 l 774 0 l 1061 732 l 1347 0 l 1693 0 l 2076 972 z "},"Ẃ":{"ha":2122,"x_min":0,"x_max":0,"o":"m 1331 1361 l 790 1250 l 790 1086 l 1331 1197 z m 1806 972 l 1519 207 l 1214 972 l 907 972 l 603 208 l 315 972 l 46 972 l 429 0 l 774 0 l 1061 732 l 1347 0 l 1693 0 l 2076 972 z "},"Ŵ":{"ha":2122,"x_min":0,"x_max":0,"o":"m 1349 1086 l 1349 1250 l 1061 1361 l 774 1250 l 774 1086 l 1061 1197 z m 1806 972 l 1519 207 l 1214 972 l 907 972 l 603 208 l 315 972 l 46 972 l 429 0 l 774 0 l 1061 732 l 1347 0 l 1693 0 l 2076 972 z "},"Ẅ":{"ha":2122,"x_min":0,"x_max":0,"o":"m 1004 1311 l 758 1311 l 758 1108 l 1004 1108 z m 1365 1311 l 1119 1311 l 1119 1108 l 1365 1108 z m 1806 972 l 1519 207 l 1214 972 l 907 972 l 603 208 l 315 972 l 46 972 l 429 0 l 774 0 l 1061 732 l 1347 0 l 1693 0 l 2076 972 z "},"Ẁ":{"ha":2122,"x_min":0,"x_max":0,"o":"m 1331 1250 l 790 1361 l 790 1197 l 1331 1086 z m 1806 972 l 1519 207 l 1214 972 l 907 972 l 603 208 l 315 972 l 46 972 l 429 0 l 774 0 l 1061 732 l 1347 0 l 1693 0 l 2076 972 z "},"X":{"ha":1525,"x_min":0,"x_max":0,"o":"m 46 0 l 390 0 l 763 333 l 1133 0 l 1479 0 l 932 486 l 1479 972 l 1133 972 l 763 639 l 390 972 l 46 972 l 593 486 z "},"Y":{"ha":1442,"x_min":0,"x_max":0,"o":"m 596 319 l 596 0 l 846 0 l 846 319 l 1396 972 l 1094 972 l 721 529 l 347 972 l 46 972 z "},"Ý":{"ha":1442,"x_min":0,"x_max":0,"o":"m 450 1250 l 450 1086 l 990 1197 l 990 1361 z m 596 319 l 596 0 l 846 0 l 846 319 l 1396 972 l 1094 972 l 721 529 l 347 972 l 46 972 z "},"Ŷ":{"ha":1442,"x_min":0,"x_max":0,"o":"m 1008 1086 l 1008 1250 l 721 1361 l 433 1250 l 433 1086 l 721 1197 z m 1094 972 l 721 529 l 347 972 l 46 972 l 596 319 l 596 0 l 846 0 l 846 319 l 1396 972 z "},"Ÿ":{"ha":1442,"x_min":0,"x_max":0,"o":"m 418 1311 l 418 1108 l 664 1108 l 664 1311 z m 779 1311 l 779 1108 l 1025 1108 l 1025 1311 z m 596 319 l 596 0 l 846 0 l 846 319 l 1396 972 l 1094 972 l 721 529 l 347 972 l 46 972 z "},"Ỳ":{"ha":1442,"x_min":0,"x_max":0,"o":"m 990 1250 l 450 1361 l 450 1197 l 990 1086 z m 596 319 l 596 0 l 846 0 l 846 319 l 1396 972 l 1094 972 l 721 529 l 347 972 l 46 972 z "},"Z":{"ha":1217,"x_min":0,"x_max":0,"o":"m 1157 972 l 60 972 l 60 763 l 797 763 l 60 210 l 60 0 l 1157 0 l 1157 210 l 418 210 l 1157 763 z "},"Ź":{"ha":1217,"x_min":0,"x_max":0,"o":"m 878 1361 l 338 1250 l 338 1086 l 878 1197 z m 1157 972 l 60 972 l 60 763 l 797 763 l 60 210 l 60 0 l 1157 0 l 1157 210 l 418 210 l 1157 763 z "},"Ž":{"ha":1217,"x_min":0,"x_max":0,"o":"m 896 1200 l 896 1364 l 608 1253 l 321 1364 l 321 1200 l 608 1089 z m 1157 972 l 60 972 l 60 763 l 797 763 l 60 210 l 60 0 l 1157 0 l 1157 210 l 418 210 l 1157 763 z "},"Ż":{"ha":1217,"x_min":0,"x_max":0,"o":"m 743 1311 l 474 1311 l 474 1108 l 743 1108 z m 1157 972 l 60 972 l 60 763 l 797 763 l 60 210 l 60 0 l 1157 0 l 1157 210 l 418 210 l 1157 763 z "},"a":{"ha":1214,"x_min":0,"x_max":0,"o":"m 615 832 b 114 747 444 832 281 801 l 199 574 b 604 633 367 624 497 633 b 915 465 715 633 915 621 b 539 524 808 501 679 524 b 46 244 279 524 46 457 b 418 -14 46 60 189 -14 b 915 101 611 -14 771 31 l 915 0 l 1154 0 l 1154 413 b 615 832 1151 722 957 832 z m 915 254 b 486 161 793 201 615 161 b 283 254 363 161 283 168 b 568 368 283 338 390 368 b 915 318 719 368 832 344 z "},"á":{"ha":1214,"x_min":0,"x_max":0,"o":"m 894 1207 l 354 1096 l 354 932 l 894 1043 z m 615 832 b 114 747 444 832 281 801 l 199 574 b 604 633 367 624 497 633 b 915 465 715 633 915 621 b 539 524 808 501 679 524 b 46 244 279 524 46 457 b 418 -14 46 60 189 -14 b 915 101 611 -14 771 31 l 915 0 l 1154 0 l 1154 413 b 615 832 1151 722 957 832 z m 915 254 b 486 161 793 201 615 161 b 283 254 363 161 283 168 b 568 368 283 338 390 368 b 915 318 719 368 832 344 z "},"ă":{"ha":1214,"x_min":0,"x_max":0,"o":"m 625 911 b 940 1208 797 911 940 967 l 789 1208 b 625 1054 789 1096 728 1054 b 460 1208 522 1054 460 1096 l 310 1208 b 625 911 310 967 453 911 z m 615 832 b 114 747 444 832 281 801 l 199 574 b 604 633 367 624 497 633 b 915 465 715 633 915 621 b 539 524 808 501 679 524 b 46 244 279 524 46 457 b 418 -14 46 60 189 -14 b 915 101 611 -14 771 31 l 915 0 l 1154 0 l 1154 413 b 615 832 1151 722 957 832 z m 915 254 b 486 161 793 201 615 161 b 283 254 363 161 283 168 b 568 368 283 338 390 368 b 915 318 719 368 832 344 z "},"â":{"ha":1214,"x_min":0,"x_max":0,"o":"m 913 932 l 913 1096 l 625 1207 l 338 1096 l 338 932 l 625 1043 z m 615 832 b 114 747 444 832 281 801 l 199 574 b 604 633 367 624 497 633 b 915 465 715 633 915 621 b 539 524 808 501 679 524 b 46 244 279 524 46 457 b 418 -14 46 60 189 -14 b 915 101 611 -14 771 31 l 915 0 l 1154 0 l 1154 413 b 615 832 1151 722 957 832 z m 915 254 b 486 161 793 201 615 161 b 283 254 363 161 283 168 b 568 368 283 338 390 368 b 915 318 719 368 832 344 z "},"ä":{"ha":1214,"x_min":0,"x_max":0,"o":"m 568 1157 l 322 1157 l 322 954 l 568 954 z m 929 1157 l 683 1157 l 683 954 l 929 954 z m 615 832 b 114 747 444 832 281 801 l 199 574 b 604 633 367 624 497 633 b 915 465 715 633 915 621 b 539 524 808 501 679 524 b 46 244 279 524 46 457 b 418 -14 46 60 189 -14 b 915 101 611 -14 771 31 l 915 0 l 1154 0 l 1154 413 b 615 832 1151 722 957 832 z m 915 254 b 486 161 793 201 615 161 b 283 254 363 161 283 168 b 568 368 283 338 390 368 b 915 318 719 368 832 344 z "},"à":{"ha":1214,"x_min":0,"x_max":0,"o":"m 894 1096 l 354 1207 l 354 1043 l 894 932 z m 615 832 b 114 747 444 832 281 801 l 199 574 b 604 633 367 624 497 633 b 915 465 715 633 915 621 b 539 524 808 501 679 524 b 46 244 279 524 46 457 b 418 -14 46 60 189 -14 b 915 101 611 -14 771 31 l 915 0 l 1154 0 l 1154 413 b 615 832 1151 722 957 832 z m 915 254 b 486 161 793 201 615 161 b 283 254 363 161 283 168 b 568 368 283 338 390 368 b 915 318 719 368 832 344 z "},"ā":{"ha":1214,"x_min":0,"x_max":0,"o":"m 950 1110 l 299 1110 l 299 946 l 950 946 z m 615 832 b 114 747 444 832 281 801 l 199 574 b 604 633 367 624 497 633 b 915 465 715 633 915 621 b 539 524 808 501 679 524 b 46 244 279 524 46 457 b 418 -14 46 60 189 -14 b 915 101 611 -14 771 31 l 915 0 l 1154 0 l 1154 413 b 615 832 1151 722 957 832 z m 915 254 b 486 161 793 201 615 161 b 283 254 363 161 283 168 b 568 368 283 338 390 368 b 915 318 719 368 832 344 z "},"ą":{"ha":1214,"x_min":0,"x_max":0,"o":"m 1011 -87 b 1076 0 1011 -51 1047 -24 l 1154 0 l 1154 413 b 615 832 1151 722 957 832 b 114 747 444 832 281 801 l 199 574 b 604 633 367 624 497 633 b 915 465 715 633 915 621 b 539 524 808 501 679 524 b 46 244 279 524 46 457 b 418 -14 46 60 189 -14 b 915 101 611 -14 771 31 l 915 0 l 944 0 b 833 -157 874 -46 833 -92 b 1233 -319 833 -293 974 -319 l 1233 -157 b 1011 -87 1118 -157 1011 -157 z m 915 254 b 486 161 793 201 615 161 b 283 254 363 161 283 168 b 568 368 283 338 390 368 b 915 318 719 368 832 344 z "},"å":{"ha":1214,"x_min":0,"x_max":0,"o":"m 625 917 b 917 1100 842 917 917 985 b 625 1283 917 1215 842 1283 b 333 1100 407 1283 333 1215 b 625 917 333 985 407 917 z m 625 1174 b 765 1100 715 1174 765 1156 b 625 1026 765 1044 715 1026 b 483 1100 535 1026 483 1044 b 625 1174 483 1156 535 1174 z m 615 832 b 114 747 444 832 281 801 l 199 574 b 604 633 367 624 497 633 b 915 465 715 633 915 621 b 539 524 808 501 679 524 b 46 244 279 524 46 457 b 418 -14 46 60 189 -14 b 915 101 611 -14 771 31 l 915 0 l 1154 0 l 1154 413 b 615 832 1151 722 957 832 z m 915 254 b 486 161 793 201 615 161 b 283 254 363 161 283 168 b 568 368 283 338 390 368 b 915 318 719 368 832 344 z "},"ã":{"ha":1214,"x_min":0,"x_max":0,"o":"m 501 1054 b 810 917 613 1054 650 917 b 1028 1208 965 917 1028 1054 l 825 1208 b 747 1085 825 1129 807 1085 b 440 1222 636 1085 599 1222 b 222 931 283 1222 222 1085 l 425 931 b 501 1054 425 1010 443 1054 z m 615 832 b 114 747 444 832 281 801 l 199 574 b 604 633 367 624 497 633 b 915 465 715 633 915 621 b 539 524 808 501 679 524 b 46 244 279 524 46 457 b 418 -14 46 60 189 -14 b 915 101 611 -14 771 31 l 915 0 l 1154 0 l 1154 413 b 615 832 1151 722 957 832 z m 915 254 b 486 161 793 201 615 161 b 283 254 363 161 283 168 b 568 368 283 338 390 368 b 915 318 719 368 832 344 z "},"æ":{"ha":2103,"x_min":0,"x_max":0,"o":"m 1483 179 b 1174 353 1325 179 1200 222 l 2057 353 b 1497 832 2057 725 1808 832 b 1053 704 1310 832 1153 793 b 615 832 961 796 813 832 b 114 747 444 832 281 801 l 199 574 b 604 633 367 624 497 633 b 915 465 715 633 915 621 b 539 524 808 501 679 524 b 46 244 279 524 46 465 b 438 -14 46 60 196 -14 b 1018 149 629 -14 871 33 b 1483 -14 1115 36 1285 -14 b 2043 293 1786 -14 1989 85 l 1807 293 b 1483 179 1747 210 1647 179 z m 1496 651 b 1803 504 1646 651 1763 619 l 1182 504 b 1496 651 1219 619 1333 651 z m 915 269 b 486 161 793 194 631 161 b 283 260 363 161 283 174 b 568 368 283 351 390 368 b 915 318 719 368 832 344 z "},"b":{"ha":1239,"x_min":0,"x_max":0,"o":"m 706 832 b 297 690 529 832 386 783 l 297 1111 l 60 1111 l 60 0 l 297 0 l 297 128 b 706 -14 386 35 529 -14 b 1193 408 968 -14 1193 96 b 706 832 1193 721 968 832 z m 626 185 b 297 408 414 185 297 247 b 626 633 297 571 414 633 b 954 408 839 633 954 571 b 626 185 954 247 839 185 z "},"c":{"ha":1218,"x_min":0,"x_max":0,"o":"m 46 408 b 613 -14 46 108 274 -14 b 1172 326 918 -14 1133 86 l 929 326 b 613 185 897 221 785 185 b 283 408 408 185 283 239 b 613 633 283 579 408 633 b 929 492 785 633 897 597 l 1172 492 b 613 832 1133 732 918 832 b 46 408 274 832 46 710 z "},"ć":{"ha":1218,"x_min":0,"x_max":0,"o":"m 342 1096 l 342 932 l 882 1043 l 882 1207 z m 46 408 b 613 -14 46 108 274 -14 b 1172 326 918 -14 1133 86 l 929 326 b 613 185 897 221 785 185 b 283 408 408 185 283 239 b 613 633 283 579 408 633 b 929 492 785 633 897 597 l 1172 492 b 613 832 1133 732 918 832 b 46 408 274 832 46 710 z "},"č":{"ha":1218,"x_min":0,"x_max":0,"o":"m 900 1046 l 900 1210 l 613 1099 l 325 1210 l 325 1046 l 613 935 z m 613 185 b 283 408 408 185 283 239 b 613 633 283 579 408 633 b 929 492 785 633 897 597 l 1172 492 b 613 832 1133 732 918 832 b 46 408 274 832 46 710 b 613 -14 46 108 274 -14 b 1172 326 918 -14 1133 86 l 929 326 b 613 185 897 221 785 185 z "},"ç":{"ha":1218,"x_min":0,"x_max":0,"o":"m 613 185 b 283 408 408 185 283 239 b 613 633 283 579 408 633 b 929 492 785 633 897 597 l 1172 492 b 613 832 1133 732 918 832 b 46 408 274 832 46 710 b 531 -11 46 133 238 8 l 515 -49 l 597 -129 b 742 -149 706 -104 742 -115 b 482 -201 742 -201 664 -228 l 482 -319 b 921 -161 696 -346 921 -319 b 675 -65 921 -26 758 -39 l 692 -11 b 1172 326 956 6 1138 107 l 929 326 b 613 185 897 221 785 185 z "},"ċ":{"ha":1218,"x_min":0,"x_max":0,"o":"m 478 1157 l 478 954 l 747 954 l 747 1157 z m 46 408 b 613 -14 46 108 274 -14 b 1172 326 918 -14 1133 86 l 929 326 b 613 185 897 221 785 185 b 283 408 408 185 283 239 b 613 633 283 579 408 633 b 929 492 785 633 897 597 l 1172 492 b 613 832 1133 732 918 832 b 46 408 274 832 46 710 z "},"d":{"ha":1239,"x_min":0,"x_max":0,"o":"m 942 1111 l 942 690 b 533 832 853 783 710 832 b 46 408 271 832 46 721 b 533 -14 46 96 271 -14 b 942 128 710 -14 853 35 l 942 0 l 1179 0 l 1179 1111 z m 613 185 b 285 408 400 185 285 247 b 613 633 285 571 400 633 b 942 408 825 633 942 571 b 613 185 942 247 825 185 z "},"ð":{"ha":1318,"x_min":0,"x_max":0,"o":"m 1007 1071 l 1219 1163 l 1132 1299 l 849 1176 b 365 1306 707 1251 540 1296 l 332 1099 b 569 1057 414 1092 494 1079 l 332 956 l 421 819 l 774 971 b 1018 576 911 886 1006 758 b 529 778 903 688 742 778 b 60 386 194 778 60 624 b 604 -14 60 97 272 -14 b 1258 536 936 -14 1258 135 b 1007 1071 1258 760 1161 942 z m 588 185 b 297 386 390 185 297 246 b 549 579 297 535 400 579 b 975 354 682 579 853 511 b 588 185 907 238 767 185 z "},"ď":{"ha":1546,"x_min":0,"x_max":0,"o":"m 942 690 b 533 832 853 783 710 832 b 46 408 271 832 46 721 b 533 -14 46 96 271 -14 b 942 128 710 -14 853 35 l 942 0 l 1179 0 l 1179 1111 l 942 1111 z m 1249 1111 l 1249 925 l 1331 925 l 1260 651 l 1374 651 l 1486 925 l 1486 1111 z m 613 185 b 285 408 400 185 285 247 b 613 633 285 571 400 633 b 942 408 825 633 942 571 b 613 185 942 247 825 185 z "},"đ":{"ha":1308,"x_min":0,"x_max":0,"o":"m 1249 1040 l 1179 1040 l 1179 1111 l 942 1111 l 942 1040 l 582 1040 l 582 876 l 942 876 l 942 690 b 533 832 853 783 710 832 b 46 408 271 832 46 721 b 533 -14 46 96 271 -14 b 942 128 710 -14 853 35 l 942 0 l 1179 0 l 1179 876 l 1249 876 z m 613 185 b 285 408 400 185 285 247 b 613 633 285 571 400 633 b 942 408 825 633 942 571 b 613 185 942 247 825 185 z "},"e":{"ha":1218,"x_min":0,"x_max":0,"o":"m 599 179 b 289 353 440 179 315 222 l 1172 353 b 613 832 1172 725 924 832 b 46 408 281 832 46 710 b 599 -14 46 108 288 -14 b 1158 293 901 -14 1104 85 l 922 293 b 599 179 863 210 763 179 z m 611 651 b 918 504 761 651 878 619 l 297 504 b 611 651 335 619 449 651 z "},"é":{"ha":1218,"x_min":0,"x_max":0,"o":"m 881 1207 l 340 1096 l 340 932 l 881 1043 z m 599 179 b 289 353 440 179 315 222 l 1172 353 b 613 832 1172 725 924 832 b 46 408 281 832 46 710 b 599 -14 46 108 288 -14 b 1158 293 901 -14 1104 85 l 922 293 b 599 179 863 210 763 179 z m 611 651 b 918 504 761 651 878 619 l 297 504 b 611 651 335 619 449 651 z "},"ě":{"ha":1218,"x_min":0,"x_max":0,"o":"m 899 1046 l 899 1210 l 611 1099 l 324 1210 l 324 1046 l 611 935 z m 599 179 b 289 353 440 179 315 222 l 1172 353 b 613 832 1172 725 924 832 b 46 408 281 832 46 710 b 599 -14 46 108 288 -14 b 1158 293 901 -14 1104 85 l 922 293 b 599 179 863 210 763 179 z m 611 651 b 918 504 761 651 878 619 l 297 504 b 611 651 335 619 449 651 z "},"ê":{"ha":1218,"x_min":0,"x_max":0,"o":"m 899 932 l 899 1096 l 611 1207 l 324 1096 l 324 932 l 611 1043 z m 599 179 b 289 353 440 179 315 222 l 1172 353 b 613 832 1172 725 924 832 b 46 408 281 832 46 710 b 599 -14 46 108 288 -14 b 1158 293 901 -14 1104 85 l 922 293 b 599 179 863 210 763 179 z m 611 651 b 918 504 761 651 878 619 l 297 504 b 611 651 335 619 449 651 z "},"ë":{"ha":1218,"x_min":0,"x_max":0,"o":"m 554 1157 l 308 1157 l 308 954 l 554 954 z m 915 1157 l 669 1157 l 669 954 l 915 954 z m 599 179 b 289 353 440 179 315 222 l 1172 353 b 613 832 1172 725 924 832 b 46 408 281 832 46 710 b 599 -14 46 108 288 -14 b 1158 293 901 -14 1104 85 l 922 293 b 599 179 863 210 763 179 z m 611 651 b 918 504 761 651 878 619 l 297 504 b 611 651 335 619 449 651 z "},"ė":{"ha":1218,"x_min":0,"x_max":0,"o":"m 746 1157 l 476 1157 l 476 954 l 746 954 z m 599 179 b 289 353 440 179 315 222 l 1172 353 b 613 832 1172 725 924 832 b 46 408 281 832 46 710 b 599 -14 46 108 288 -14 b 1158 293 901 -14 1104 85 l 922 293 b 599 179 863 210 763 179 z m 611 651 b 918 504 761 651 878 619 l 297 504 b 611 651 335 619 449 651 z "},"è":{"ha":1218,"x_min":0,"x_max":0,"o":"m 881 1096 l 340 1207 l 340 1043 l 881 932 z m 599 179 b 289 353 440 179 315 222 l 1172 353 b 613 832 1172 725 924 832 b 46 408 281 832 46 710 b 599 -14 46 108 288 -14 b 1158 293 901 -14 1104 85 l 922 293 b 599 179 863 210 763 179 z m 611 651 b 918 504 761 651 878 619 l 297 504 b 611 651 335 619 449 651 z "},"ē":{"ha":1218,"x_min":0,"x_max":0,"o":"m 936 1110 l 285 1110 l 285 946 l 936 946 z m 599 179 b 289 353 440 179 315 222 l 1172 353 b 613 832 1172 725 924 832 b 46 408 281 832 46 710 b 599 -14 46 108 288 -14 b 1158 293 901 -14 1104 85 l 922 293 b 599 179 863 210 763 179 z m 611 651 b 918 504 761 651 878 619 l 297 504 b 611 651 335 619 449 651 z "},"ę":{"ha":1218,"x_min":0,"x_max":0,"o":"m 599 179 b 289 353 440 179 315 222 l 1172 353 b 613 832 1172 725 924 832 b 46 408 281 832 46 710 b 599 -14 46 108 288 -14 l 619 -14 b 529 -157 563 -56 529 -99 b 929 -319 529 -293 669 -319 l 929 -157 b 707 -87 814 -157 707 -157 b 771 -1 707 -53 742 -25 b 1158 293 978 31 1115 126 l 922 293 b 599 179 863 210 763 179 z m 611 651 b 918 504 761 651 878 619 l 297 504 b 611 651 335 619 449 651 z "},"f":{"ha":892,"x_min":0,"x_max":0,"o":"m 675 950 b 846 943 736 950 792 947 l 846 1111 b 600 1125 725 1125 682 1125 b 261 879 361 1125 261 1046 l 261 818 l 46 818 l 46 619 l 261 619 l 261 0 l 500 0 l 500 619 l 846 619 l 846 818 l 500 818 b 675 950 504 921 539 950 z "},"g":{"ha":1239,"x_min":0,"x_max":0,"o":"m 940 818 l 940 686 b 526 832 858 778 721 832 b 46 421 246 832 46 710 b 526 10 46 132 246 10 b 940 156 719 10 857 64 b 593 -149 931 -54 839 -149 b 133 -90 413 -149 229 -108 l 133 -282 b 646 -347 213 -303 408 -347 b 1179 131 956 -347 1179 -203 l 1179 818 z m 613 208 b 283 421 389 208 283 271 b 613 633 283 571 389 633 b 940 421 836 633 940 571 b 613 208 940 271 836 208 z "},"ğ":{"ha":1239,"x_min":0,"x_max":0,"o":"m 613 911 b 928 1208 785 911 928 967 l 776 1208 b 613 1054 776 1096 715 1054 b 447 1208 510 1054 447 1096 l 297 1208 b 613 911 297 967 440 911 z m 940 818 l 940 686 b 526 832 858 778 721 832 b 46 421 246 832 46 710 b 526 10 46 132 246 10 b 940 156 719 10 857 64 b 593 -149 931 -54 839 -149 b 133 -90 413 -149 229 -108 l 133 -282 b 646 -347 213 -303 408 -347 b 1179 131 956 -347 1179 -203 l 1179 818 z m 613 208 b 283 421 389 208 283 271 b 613 633 283 571 389 633 b 940 421 836 633 940 571 b 613 208 940 271 836 208 z "},"ģ":{"ha":1239,"x_min":0,"x_max":0,"o":"m 719 1131 l 642 1131 l 719 1283 l 617 1283 l 506 1131 l 506 981 l 719 981 z m 940 818 l 940 686 b 526 832 858 778 721 832 b 46 421 246 832 46 710 b 526 10 46 132 246 10 b 940 156 719 10 857 64 b 593 -149 931 -54 839 -149 b 133 -90 413 -149 229 -108 l 133 -282 b 646 -347 213 -303 408 -347 b 1179 131 956 -347 1179 -203 l 1179 818 z m 613 208 b 283 421 389 208 283 271 b 613 633 283 571 389 633 b 940 421 836 633 940 571 b 613 208 940 271 836 208 z "},"ġ":{"ha":1239,"x_min":0,"x_max":0,"o":"m 747 1157 l 478 1157 l 478 954 l 747 954 z m 940 818 l 940 686 b 526 832 858 778 721 832 b 46 421 246 832 46 710 b 526 10 46 132 246 10 b 940 156 719 10 857 64 b 593 -149 931 -54 839 -149 b 133 -90 413 -149 229 -108 l 133 -282 b 646 -347 213 -303 408 -347 b 1179 131 956 -347 1179 -203 l 1179 818 z m 613 208 b 283 421 389 208 283 271 b 613 633 283 571 389 633 b 940 421 836 633 940 571 b 613 208 940 271 836 208 z "},"h":{"ha":1257,"x_min":0,"x_max":0,"o":"m 774 832 b 297 675 575 832 414 767 l 297 1111 l 60 1111 l 60 0 l 297 0 l 297 458 b 703 626 371 544 543 626 b 957 363 899 626 957 536 l 957 0 l 1196 0 l 1199 453 b 774 832 1196 754 992 832 z "},"ħ":{"ha":1338,"x_min":0,"x_max":0,"o":"m 853 832 b 376 675 654 832 493 767 l 376 885 l 726 885 l 726 1049 l 376 1049 l 376 1111 l 139 1111 l 139 1049 l 60 1049 l 60 885 l 139 885 l 139 0 l 376 0 l 376 458 b 782 626 450 544 622 626 b 1036 363 978 626 1036 536 l 1036 0 l 1275 0 l 1278 453 b 853 832 1275 754 1071 832 z "},"i":{"ha":357,"x_min":0,"x_max":0,"o":"m 60 1111 l 60 904 l 297 904 l 297 1111 z m 60 818 l 60 0 l 297 0 l 297 818 z "},"ı":{"ha":357,"x_min":0,"x_max":0,"o":"m 60 818 l 60 0 l 297 0 l 297 818 z "},"í":{"ha":357,"x_min":0,"x_max":0,"o":"m -92 1096 l -92 932 l 449 1043 l 449 1207 z m 60 818 l 60 0 l 297 0 l 297 818 z "},"î":{"ha":357,"x_min":0,"x_max":0,"o":"m 179 1207 l -108 1096 l -108 932 l 179 1043 l 467 932 l 467 1096 z m 60 0 l 297 0 l 297 818 l 60 818 z "},"ï":{"ha":357,"x_min":0,"x_max":0,"o":"m -124 1157 l -124 954 l 122 954 l 122 1157 z m 238 1157 l 238 954 l 483 954 l 483 1157 z m 60 818 l 60 0 l 297 0 l 297 818 z "},"ì":{"ha":357,"x_min":0,"x_max":0,"o":"m 449 1096 l -92 1207 l -92 1043 l 449 932 z m 60 818 l 60 0 l 297 0 l 297 818 z "},"ī":{"ha":357,"x_min":0,"x_max":0,"o":"m -147 1110 l -147 946 l 504 946 l 504 1110 z m 60 818 l 60 0 l 297 0 l 297 818 z "},"į":{"ha":357,"x_min":0,"x_max":0,"o":"m 314 1157 l 44 1157 l 44 954 l 314 954 z m 200 -87 b 265 0 200 -51 236 -24 l 297 0 l 297 818 l 60 818 l 60 0 l 133 0 b 22 -157 63 -46 22 -92 b 422 -319 22 -293 163 -319 l 422 -157 b 200 -87 307 -157 200 -157 z "},"j":{"ha":647,"x_min":0,"x_max":0,"o":"m 350 1111 l 350 904 l 589 904 l 589 1111 z m 589 818 l 350 818 l 350 50 b 175 -149 350 -122 319 -149 b 4 -135 114 -149 72 -143 l 4 -326 b 250 -347 83 -340 168 -347 b 589 38 514 -347 589 -212 z "},"k":{"ha":1344,"x_min":0,"x_max":0,"o":"m 1299 818 l 893 818 l 297 450 l 297 1111 l 60 1111 l 60 0 l 297 0 l 297 189 l 576 357 l 968 0 l 1299 0 l 768 483 z "},"ķ":{"ha":1344,"x_min":0,"x_max":0,"o":"m 1299 818 l 893 818 l 297 450 l 297 1111 l 60 1111 l 60 0 l 297 0 l 297 189 l 576 357 l 968 0 l 1299 0 l 768 483 z m 503 -312 l 581 -312 l 503 -465 l 606 -465 l 717 -312 l 717 -162 l 503 -162 z "},"l":{"ha":357,"x_min":0,"x_max":0,"o":"m 60 1111 l 60 0 l 297 0 l 297 1111 z "},"ĺ":{"ha":357,"x_min":0,"x_max":0,"o":"m -92 1389 l -92 1225 l 449 1336 l 449 1500 z m 60 1111 l 60 0 l 297 0 l 297 1111 z "},"ľ":{"ha":357,"x_min":0,"x_max":0,"o":"m 179 1392 l -108 1503 l -108 1339 l 179 1228 l 467 1339 l 467 1503 z m 60 0 l 297 0 l 297 1111 l 60 1111 z "},"ļ":{"ha":357,"x_min":0,"x_max":0,"o":"m 60 1111 l 60 0 l 297 0 l 297 1111 z m 72 -162 l 72 -312 l 150 -312 l 72 -465 l 175 -465 l 286 -312 l 286 -162 z "},"ł":{"ha":844,"x_min":0,"x_max":0,"o":"m 785 863 l 525 756 l 525 1111 l 288 1111 l 288 658 l 60 564 l 60 361 l 288 456 l 288 0 l 525 0 l 525 553 l 785 660 z "},"m":{"ha":1892,"x_min":0,"x_max":0,"o":"m 1479 832 b 1025 682 1276 832 1131 761 b 722 832 963 796 846 832 b 297 685 519 832 386 756 l 297 818 l 60 818 l 60 0 l 297 0 l 297 482 b 636 626 365 556 499 626 b 835 363 806 626 835 536 l 835 0 l 1072 0 l 1075 458 b 1074 501 1075 474 1075 488 b 1393 626 1146 567 1268 626 b 1592 363 1563 626 1592 536 l 1592 0 l 1829 0 l 1832 458 b 1479 832 1829 754 1663 832 z "},"n":{"ha":1257,"x_min":0,"x_max":0,"o":"m 774 832 b 297 675 575 832 414 767 l 297 818 l 60 818 l 60 0 l 297 0 l 297 458 b 703 626 371 544 543 626 b 957 363 899 626 957 536 l 957 0 l 1196 0 l 1199 453 b 774 832 1196 754 992 832 z "},"ń":{"ha":1257,"x_min":0,"x_max":0,"o":"m 953 1207 l 413 1096 l 413 932 l 953 1043 z m 774 832 b 297 675 575 832 414 767 l 297 818 l 60 818 l 60 0 l 297 0 l 297 458 b 703 626 371 544 543 626 b 957 363 899 626 957 536 l 957 0 l 1196 0 l 1199 453 b 774 832 1196 754 992 832 z "},"ň":{"ha":1257,"x_min":0,"x_max":0,"o":"m 971 1046 l 971 1210 l 683 1099 l 396 1210 l 396 1046 l 683 935 z m 774 832 b 297 675 575 832 414 767 l 297 818 l 60 818 l 60 0 l 297 0 l 297 458 b 703 626 371 544 543 626 b 957 363 899 626 957 536 l 957 0 l 1196 0 l 1199 453 b 774 832 1196 754 992 832 z "},"ņ":{"ha":1257,"x_min":0,"x_max":0,"o":"m 774 832 b 297 675 575 832 414 767 l 297 818 l 60 818 l 60 0 l 297 0 l 297 458 b 703 626 371 544 543 626 b 957 363 899 626 957 536 l 957 0 l 1196 0 l 1199 453 b 774 832 1196 754 992 832 z m 521 -312 l 599 -312 l 521 -465 l 624 -465 l 735 -312 l 735 -162 l 521 -162 z "},"ŋ":{"ha":1257,"x_min":0,"x_max":0,"o":"m 774 832 b 297 675 575 832 414 767 l 297 818 l 60 818 l 60 0 l 297 0 l 297 458 b 703 626 371 544 543 626 b 957 363 899 626 957 536 l 957 0 b 721 -168 957 -142 888 -168 b 564 -154 674 -168 632 -162 l 564 -339 b 810 -360 643 -353 728 -360 b 1196 0 1082 -360 1196 -240 l 1199 453 b 774 832 1196 754 992 832 z "},"ñ":{"ha":1257,"x_min":0,"x_max":0,"o":"m 560 1054 b 868 917 671 1054 708 917 b 1086 1208 1024 917 1086 1054 l 883 1208 b 806 1085 883 1129 865 1085 b 499 1222 694 1085 657 1222 b 281 931 342 1222 281 1085 l 483 931 b 560 1054 483 1010 501 1054 z m 774 832 b 297 675 575 832 414 767 l 297 818 l 60 818 l 60 0 l 297 0 l 297 458 b 703 626 371 544 543 626 b 957 363 899 626 957 536 l 957 0 l 1196 0 l 1199 453 b 774 832 1196 754 992 832 z "},"o":{"ha":1225,"x_min":0,"x_max":0,"o":"m 613 -14 b 1179 408 950 -14 1179 108 b 613 832 1179 710 950 832 b 46 408 274 832 46 710 b 613 -14 46 108 274 -14 z m 613 185 b 283 408 392 185 283 239 b 613 633 283 579 392 633 b 940 408 832 633 940 579 b 613 185 940 239 832 185 z "},"ó":{"ha":1225,"x_min":0,"x_max":0,"o":"m 342 1096 l 342 932 l 882 1043 l 882 1207 z m 613 -14 b 1179 408 950 -14 1179 108 b 613 832 1179 710 950 832 b 46 408 274 832 46 710 b 613 -14 46 108 274 -14 z m 613 185 b 283 408 392 185 283 239 b 613 633 283 579 392 633 b 940 408 832 633 940 579 b 613 185 940 239 832 185 z "},"ô":{"ha":1225,"x_min":0,"x_max":0,"o":"m 900 932 l 900 1096 l 613 1207 l 325 1096 l 325 932 l 613 1043 z m 613 832 b 46 408 274 832 46 710 b 613 -14 46 108 274 -14 b 1179 408 950 -14 1179 108 b 613 832 1179 710 950 832 z m 613 185 b 283 408 392 185 283 239 b 613 633 283 579 392 633 b 940 408 832 633 940 579 b 613 185 940 239 832 185 z "},"ö":{"ha":1225,"x_min":0,"x_max":0,"o":"m 310 1157 l 310 954 l 556 954 l 556 1157 z m 671 1157 l 671 954 l 917 954 l 917 1157 z m 613 -14 b 1179 408 950 -14 1179 108 b 613 832 1179 710 950 832 b 46 408 274 832 46 710 b 613 -14 46 108 274 -14 z m 613 185 b 283 408 392 185 283 239 b 613 633 283 579 392 633 b 940 408 832 633 940 579 b 613 185 940 239 832 185 z "},"ò":{"ha":1225,"x_min":0,"x_max":0,"o":"m 882 1096 l 342 1207 l 342 1043 l 882 932 z m 613 -14 b 1179 408 950 -14 1179 108 b 613 832 1179 710 950 832 b 46 408 274 832 46 710 b 613 -14 46 108 274 -14 z m 613 185 b 283 408 392 185 283 239 b 613 633 283 579 392 633 b 940 408 832 633 940 579 b 613 185 940 239 832 185 z "},"ő":{"ha":1225,"x_min":0,"x_max":0,"o":"m 283 1113 l 283 943 l 571 1054 l 571 1224 z m 654 1113 l 654 943 l 942 1054 l 942 1224 z m 613 -14 b 1179 408 950 -14 1179 108 b 613 832 1179 710 950 832 b 46 408 274 832 46 710 b 613 -14 46 108 274 -14 z m 613 185 b 283 408 392 185 283 239 b 613 633 283 579 392 633 b 940 408 832 633 940 579 b 613 185 940 239 832 185 z "},"ō":{"ha":1225,"x_min":0,"x_max":0,"o":"m 286 1110 l 286 946 l 938 946 l 938 1110 z m 613 -14 b 1179 408 950 -14 1179 108 b 613 832 1179 710 950 832 b 46 408 274 832 46 710 b 613 -14 46 108 274 -14 z m 613 185 b 283 408 392 185 283 239 b 613 633 283 579 392 633 b 940 408 832 633 940 579 b 613 185 940 239 832 185 z "},"ø":{"ha":1225,"x_min":0,"x_max":0,"o":"m 835 810 l 896 1013 l 690 1013 l 636 832 l 613 832 b 46 408 274 832 46 710 b 390 8 46 181 178 54 l 329 -196 l 535 -196 l 589 -14 l 613 -14 b 1179 408 950 -14 1179 108 b 835 810 1179 638 1047 763 z m 283 408 b 576 633 283 569 381 626 l 447 200 b 283 408 338 226 283 289 z m 649 185 l 778 618 b 940 408 886 592 940 529 b 649 185 940 249 844 192 z "},"õ":{"ha":1225,"x_min":0,"x_max":0,"o":"m 210 931 l 413 931 b 489 1054 413 1010 431 1054 b 797 917 600 1054 638 917 b 1015 1208 953 917 1015 1054 l 813 1208 b 735 1085 813 1129 794 1085 b 428 1222 624 1085 586 1222 b 210 931 271 1222 210 1085 z m 613 -14 b 1179 408 950 -14 1179 108 b 613 832 1179 710 950 832 b 46 408 274 832 46 710 b 613 -14 46 108 274 -14 z m 613 185 b 283 408 392 185 283 239 b 613 633 283 579 392 633 b 940 408 832 633 940 579 b 613 185 940 239 832 185 z "},"œ":{"ha":2143,"x_min":0,"x_max":0,"o":"m 1524 179 b 1214 353 1365 179 1240 222 l 2097 353 b 1538 832 2097 725 1849 832 b 1076 689 1339 832 1175 789 b 613 832 978 789 814 832 b 46 408 274 832 46 710 b 613 -14 46 108 274 -14 b 1076 129 815 -14 978 31 b 1524 -14 1176 31 1338 -14 b 2083 293 1826 -14 2029 85 l 1847 293 b 1524 179 1788 210 1688 179 z m 1536 651 b 1843 504 1686 651 1803 619 l 1222 504 b 1536 651 1260 619 1374 651 z m 613 185 b 283 408 392 185 283 239 b 613 633 283 579 392 633 b 940 408 832 633 940 579 b 613 185 940 239 832 185 z "},"p":{"ha":1239,"x_min":0,"x_max":0,"o":"m 706 832 b 299 692 529 832 388 783 l 299 818 l 60 818 l 60 -347 l 299 -347 l 299 126 b 706 -14 388 33 529 -14 b 1193 408 969 -14 1193 96 b 706 832 1193 721 969 832 z m 626 185 b 299 408 414 185 299 247 b 626 633 299 571 414 633 b 956 408 839 633 956 571 b 626 185 956 247 839 185 z "},"þ":{"ha":1244,"x_min":0,"x_max":0,"o":"m 710 832 b 297 681 535 832 386 785 l 297 1111 l 60 1111 l 60 -254 l 297 -254 l 297 138 b 710 -14 386 32 535 -14 b 1193 408 954 -14 1193 81 b 710 832 1193 738 954 832 z m 626 185 b 297 408 399 185 297 254 b 626 633 297 563 399 633 b 954 408 854 633 954 563 b 626 185 954 254 854 185 z "},"q":{"ha":1239,"x_min":0,"x_max":0,"o":"m 940 818 l 940 692 b 533 832 851 783 710 832 b 46 408 269 832 46 721 b 533 -14 46 96 269 -14 b 940 126 710 -14 851 33 l 940 -347 l 1179 -347 l 1179 818 z m 613 185 b 283 408 400 185 283 247 b 613 633 283 571 400 633 b 940 408 825 633 940 571 b 613 185 940 247 825 185 z "},"r":{"ha":983,"x_min":0,"x_max":0,"o":"m 717 832 b 297 679 564 832 419 789 l 297 818 l 60 818 l 60 0 l 297 0 l 297 490 b 728 633 442 603 594 633 b 938 606 797 633 860 625 l 938 804 b 717 832 882 818 814 832 z "},"ŕ":{"ha":983,"x_min":0,"x_max":0,"o":"m 768 1207 l 228 1096 l 228 932 l 768 1043 z m 717 832 b 297 679 564 832 419 789 l 297 818 l 60 818 l 60 0 l 297 0 l 297 490 b 728 633 442 603 594 633 b 938 606 797 633 860 625 l 938 804 b 717 832 882 818 814 832 z "},"ř":{"ha":983,"x_min":0,"x_max":0,"o":"m 786 1046 l 786 1210 l 499 1099 l 211 1210 l 211 1046 l 499 935 z m 717 832 b 297 679 564 832 419 789 l 297 818 l 60 818 l 60 0 l 297 0 l 297 490 b 728 633 442 603 594 633 b 938 606 797 633 860 625 l 938 804 b 717 832 882 818 814 832 z "},"ŗ":{"ha":983,"x_min":0,"x_max":0,"o":"m 717 832 b 297 679 564 832 419 789 l 297 818 l 60 818 l 60 0 l 297 0 l 297 490 b 728 633 442 603 594 633 b 938 606 797 633 860 625 l 938 804 b 717 832 882 818 814 832 z m 72 -312 l 150 -312 l 72 -465 l 175 -465 l 286 -312 l 286 -162 l 72 -162 z "},"s":{"ha":1222,"x_min":0,"x_max":0,"o":"m 46 288 b 653 -14 46 26 338 -14 b 1176 257 968 -14 1176 26 b 639 507 1176 475 958 483 b 314 588 357 528 314 536 b 603 651 314 635 378 651 b 910 567 824 651 910 635 l 1149 567 b 617 832 1149 792 925 832 b 75 578 325 832 75 792 b 611 332 75 381 251 353 b 938 247 899 314 938 310 b 639 167 938 183 896 167 b 283 288 374 167 283 200 z "},"ś":{"ha":1222,"x_min":0,"x_max":0,"o":"m 340 1096 l 340 932 l 881 1043 l 881 1207 z m 46 288 b 653 -14 46 26 338 -14 b 1176 257 968 -14 1176 26 b 639 507 1176 475 958 483 b 314 588 357 528 314 536 b 603 651 314 635 378 651 b 910 567 824 651 910 635 l 1149 567 b 617 832 1149 792 925 832 b 75 578 325 832 75 792 b 611 332 75 381 251 353 b 938 247 899 314 938 310 b 639 167 938 183 896 167 b 283 288 374 167 283 200 z "},"š":{"ha":1222,"x_min":0,"x_max":0,"o":"m 899 1046 l 899 1210 l 611 1099 l 324 1210 l 324 1046 l 611 935 z m 639 507 b 314 588 357 528 314 536 b 603 651 314 635 378 651 b 910 567 824 651 910 635 l 1149 567 b 617 832 1149 792 925 832 b 75 578 325 832 75 792 b 611 332 75 381 251 353 b 938 247 899 314 938 310 b 639 167 938 183 896 167 b 283 288 374 167 283 200 l 46 288 b 653 -14 46 26 338 -14 b 1176 257 968 -14 1176 26 b 639 507 1176 475 958 483 z "},"ş":{"ha":1222,"x_min":0,"x_max":0,"o":"m 1176 257 b 639 507 1176 475 958 483 b 314 588 357 528 314 536 b 603 651 314 635 378 651 b 910 567 824 651 910 635 l 1149 567 b 617 832 1149 792 925 832 b 75 578 325 832 75 792 b 611 332 75 381 251 353 b 938 247 899 314 938 310 b 639 167 938 183 896 167 b 283 288 374 167 283 200 l 46 288 b 529 -11 46 61 265 1 l 514 -49 l 596 -129 b 740 -149 704 -104 740 -115 b 481 -201 740 -201 663 -228 l 481 -319 b 919 -161 694 -346 919 -319 b 674 -65 919 -26 757 -39 l 690 -14 b 1176 257 985 -10 1176 36 z "},"ș":{"ha":1222,"x_min":0,"x_max":0,"o":"m 46 288 b 653 -14 46 26 338 -14 b 1176 257 968 -14 1176 26 b 639 507 1176 475 958 483 b 314 588 357 528 314 536 b 603 651 314 635 378 651 b 910 567 824 651 910 635 l 1149 567 b 617 832 1149 792 925 832 b 75 578 325 832 75 792 b 611 332 75 381 251 353 b 938 247 899 314 938 310 b 639 167 938 183 896 167 b 283 288 374 167 283 200 z m 504 -162 l 504 -312 l 582 -312 l 504 -465 l 607 -465 l 718 -312 l 718 -162 z "},"ß":{"ha":1208,"x_min":0,"x_max":0,"o":"m 928 542 b 1010 714 979 586 1010 643 b 575 986 1010 922 833 986 b 60 589 238 986 60 907 l 60 0 l 297 0 l 297 589 b 569 788 297 756 394 788 b 771 679 699 788 771 758 b 472 568 771 578 697 568 l 472 417 b 924 307 842 417 924 404 b 472 199 924 211 842 199 l 472 0 b 1163 278 944 0 1163 13 b 928 542 1163 438 1075 510 z "},"t":{"ha":933,"x_min":0,"x_max":0,"o":"m 888 619 l 888 818 l 500 818 l 500 1056 l 261 988 l 261 818 l 46 818 l 46 619 l 261 619 l 261 246 b 608 -14 261 65 397 -14 b 888 7 718 -14 808 -7 l 888 199 b 675 185 792 185 750 185 b 500 383 531 185 500 225 l 500 619 z "},"ŧ":{"ha":933,"x_min":0,"x_max":0,"o":"m 888 619 l 888 818 l 500 818 l 500 1056 l 261 988 l 261 818 l 46 818 l 46 619 l 261 619 l 261 499 l 121 499 l 121 335 l 261 335 l 261 246 b 608 -14 261 65 397 -14 b 888 7 718 -14 808 -7 l 888 199 b 675 185 792 185 750 185 b 501 335 547 185 508 217 l 788 335 l 788 499 l 500 499 l 500 619 z "},"ť":{"ha":933,"x_min":0,"x_max":0,"o":"m 668 1256 l 668 1419 l 381 1308 l 93 1419 l 93 1256 l 381 1144 z m 888 619 l 888 818 l 500 818 l 500 1056 l 261 988 l 261 818 l 46 818 l 46 619 l 261 619 l 261 246 b 608 -14 261 65 397 -14 b 888 7 718 -14 808 -7 l 888 199 b 675 185 792 185 750 185 b 500 383 531 185 500 225 l 500 619 z "},"ţ":{"ha":933,"x_min":0,"x_max":0,"o":"m 888 619 l 888 818 l 500 818 l 500 1056 l 261 988 l 261 818 l 46 818 l 46 619 l 261 619 l 261 246 b 497 -6 261 99 351 19 l 481 -49 l 563 -129 b 707 -149 671 -104 707 -115 b 447 -201 707 -201 629 -228 l 447 -319 b 886 -161 661 -346 886 -319 b 640 -65 886 -26 724 -39 l 657 -14 b 888 7 744 -11 821 -4 l 888 199 b 675 185 792 185 750 185 b 500 383 531 185 500 225 l 500 619 z "},"ț":{"ha":933,"x_min":0,"x_max":0,"o":"m 888 619 l 888 818 l 500 818 l 500 1056 l 261 988 l 261 818 l 46 818 l 46 619 l 261 619 l 261 246 b 608 -14 261 65 397 -14 b 888 7 718 -14 808 -7 l 888 199 b 675 185 792 185 750 185 b 500 383 531 185 500 225 l 500 619 z m 471 -312 l 549 -312 l 471 -465 l 574 -465 l 685 -312 l 685 -162 l 471 -162 z "},"u":{"ha":1257,"x_min":0,"x_max":0,"o":"m 960 818 l 960 360 b 554 192 886 274 714 192 b 300 456 358 192 300 282 l 300 818 l 61 818 l 58 365 b 483 -14 61 64 265 -14 b 960 143 682 -14 843 51 l 960 0 l 1197 0 l 1197 818 z "},"ú":{"ha":1257,"x_min":0,"x_max":0,"o":"m 897 1207 l 357 1096 l 357 932 l 897 1043 z m 960 818 l 960 360 b 554 192 886 274 714 192 b 300 456 358 192 300 282 l 300 818 l 61 818 l 58 365 b 483 -14 61 64 265 -14 b 960 143 682 -14 843 51 l 960 0 l 1197 0 l 1197 818 z "},"û":{"ha":1257,"x_min":0,"x_max":0,"o":"m 915 932 l 915 1096 l 628 1207 l 340 1096 l 340 932 l 628 1043 z m 960 818 l 960 360 b 554 192 886 274 714 192 b 300 456 358 192 300 282 l 300 818 l 61 818 l 58 365 b 483 -14 61 64 265 -14 b 960 143 682 -14 843 51 l 960 0 l 1197 0 l 1197 818 z "},"ü":{"ha":1257,"x_min":0,"x_max":0,"o":"m 571 1157 l 325 1157 l 325 954 l 571 954 z m 932 1157 l 686 1157 l 686 954 l 932 954 z m 960 818 l 960 360 b 554 192 886 274 714 192 b 300 456 358 192 300 282 l 300 818 l 61 818 l 58 365 b 483 -14 61 64 265 -14 b 960 143 682 -14 843 51 l 960 0 l 1197 0 l 1197 818 z "},"ù":{"ha":1257,"x_min":0,"x_max":0,"o":"m 897 1096 l 357 1207 l 357 1043 l 897 932 z m 960 818 l 960 360 b 554 192 886 274 714 192 b 300 456 358 192 300 282 l 300 818 l 61 818 l 58 365 b 483 -14 61 64 265 -14 b 960 143 682 -14 843 51 l 960 0 l 1197 0 l 1197 818 z "},"ű":{"ha":1257,"x_min":0,"x_max":0,"o":"m 586 1224 l 299 1113 l 299 943 l 586 1054 z m 957 1224 l 669 1113 l 669 943 l 957 1054 z m 960 818 l 960 360 b 554 192 886 274 714 192 b 300 456 358 192 300 282 l 300 818 l 61 818 l 58 365 b 483 -14 61 64 265 -14 b 960 143 682 -14 843 51 l 960 0 l 1197 0 l 1197 818 z "},"ū":{"ha":1257,"x_min":0,"x_max":0,"o":"m 953 1110 l 301 1110 l 301 946 l 953 946 z m 960 818 l 960 360 b 554 192 886 274 714 192 b 300 456 358 192 300 282 l 300 818 l 61 818 l 58 365 b 483 -14 61 64 265 -14 b 960 143 682 -14 843 51 l 960 0 l 1197 0 l 1197 818 z "},"ų":{"ha":1257,"x_min":0,"x_max":0,"o":"m 1051 -87 b 1117 0 1051 -51 1088 -24 l 1197 0 l 1197 818 l 960 818 l 960 360 b 554 192 886 274 714 192 b 300 456 358 192 300 282 l 300 818 l 61 818 l 58 365 b 483 -14 61 64 265 -14 b 960 143 682 -14 843 51 l 960 0 l 985 0 b 874 -157 914 -46 874 -92 b 1274 -319 874 -293 1014 -319 l 1274 -157 b 1051 -87 1158 -157 1051 -157 z "},"ů":{"ha":1257,"x_min":0,"x_max":0,"o":"m 628 917 b 919 1100 844 917 919 985 b 628 1283 919 1215 844 1283 b 336 1100 410 1283 336 1215 b 628 917 336 985 410 917 z m 628 1174 b 768 1100 718 1174 768 1156 b 628 1026 768 1044 718 1026 b 486 1100 538 1026 486 1044 b 628 1174 486 1156 538 1174 z m 960 818 l 960 360 b 554 192 886 274 714 192 b 300 456 358 192 300 282 l 300 818 l 61 818 l 58 365 b 483 -14 61 64 265 -14 b 960 143 682 -14 843 51 l 960 0 l 1197 0 l 1197 818 z "},"v":{"ha":1260,"x_min":0,"x_max":0,"o":"m 950 818 l 631 168 l 310 818 l 46 818 l 460 0 l 799 0 l 1214 818 z "},"w":{"ha":1942,"x_min":0,"x_max":0,"o":"m 1631 818 l 1363 188 l 1113 818 l 829 818 l 579 186 l 311 818 l 46 818 l 414 0 l 731 0 l 971 569 l 1211 0 l 1528 0 l 1896 818 z "},"ẃ":{"ha":1942,"x_min":0,"x_max":0,"o":"m 1240 1207 l 700 1096 l 700 932 l 1240 1043 z m 1631 818 l 1363 188 l 1113 818 l 829 818 l 579 186 l 311 818 l 46 818 l 414 0 l 731 0 l 971 569 l 1211 0 l 1528 0 l 1896 818 z "},"ŵ":{"ha":1942,"x_min":0,"x_max":0,"o":"m 1258 932 l 1258 1096 l 971 1207 l 683 1096 l 683 932 l 971 1043 z m 1631 818 l 1363 188 l 1113 818 l 829 818 l 579 186 l 311 818 l 46 818 l 414 0 l 731 0 l 971 569 l 1211 0 l 1528 0 l 1896 818 z "},"ẅ":{"ha":1942,"x_min":0,"x_max":0,"o":"m 914 1157 l 668 1157 l 668 954 l 914 954 z m 1275 1157 l 1029 1157 l 1029 954 l 1275 954 z m 1631 818 l 1363 188 l 1113 818 l 829 818 l 579 186 l 311 818 l 46 818 l 414 0 l 731 0 l 971 569 l 1211 0 l 1528 0 l 1896 818 z "},"ẁ":{"ha":1942,"x_min":0,"x_max":0,"o":"m 1240 1096 l 700 1207 l 700 1043 l 1240 932 z m 1631 818 l 1363 188 l 1113 818 l 829 818 l 579 186 l 311 818 l 46 818 l 414 0 l 731 0 l 971 569 l 1211 0 l 1528 0 l 1896 818 z "},"x":{"ha":1331,"x_min":0,"x_max":0,"o":"m 46 0 l 365 0 l 665 271 l 965 0 l 1285 0 l 824 408 l 1285 818 l 965 818 l 665 547 l 365 818 l 46 818 l 506 408 z "},"y":{"ha":1288,"x_min":0,"x_max":0,"o":"m 979 818 l 660 143 l 310 818 l 46 818 l 469 0 l 592 0 l 426 -347 l 689 -347 l 1242 818 z "},"ý":{"ha":1288,"x_min":0,"x_max":0,"o":"m 914 1207 l 374 1096 l 374 932 l 914 1043 z m 979 818 l 660 143 l 310 818 l 46 818 l 469 0 l 592 0 l 426 -347 l 689 -347 l 1242 818 z "},"ŷ":{"ha":1288,"x_min":0,"x_max":0,"o":"m 932 932 l 932 1096 l 644 1207 l 357 1096 l 357 932 l 644 1043 z m 979 818 l 660 143 l 310 818 l 46 818 l 469 0 l 592 0 l 426 -347 l 689 -347 l 1242 818 z "},"ÿ":{"ha":1288,"x_min":0,"x_max":0,"o":"m 588 1157 l 342 1157 l 342 954 l 588 954 z m 949 1157 l 703 1157 l 703 954 l 949 954 z m 979 818 l 660 143 l 310 818 l 46 818 l 469 0 l 592 0 l 426 -347 l 689 -347 l 1242 818 z "},"ỳ":{"ha":1288,"x_min":0,"x_max":0,"o":"m 914 1096 l 374 1207 l 374 1043 l 914 932 z m 979 818 l 660 143 l 310 818 l 46 818 l 469 0 l 592 0 l 426 -347 l 689 -347 l 1242 818 z "},"z":{"ha":1083,"x_min":0,"x_max":0,"o":"m 1024 818 l 60 818 l 60 619 l 672 619 l 60 199 l 60 0 l 1024 0 l 1024 199 l 411 199 l 1024 619 z "},"ź":{"ha":1083,"x_min":0,"x_max":0,"o":"m 811 1207 l 271 1096 l 271 932 l 811 1043 z m 1024 818 l 60 818 l 60 619 l 672 619 l 60 199 l 60 0 l 1024 0 l 1024 199 l 411 199 l 1024 619 z "},"ž":{"ha":1083,"x_min":0,"x_max":0,"o":"m 829 1046 l 829 1210 l 542 1099 l 254 1210 l 254 1046 l 542 935 z m 1024 818 l 60 818 l 60 619 l 672 619 l 60 199 l 60 0 l 1024 0 l 1024 199 l 411 199 l 1024 619 z "},"ż":{"ha":1083,"x_min":0,"x_max":0,"o":"m 676 1157 l 407 1157 l 407 954 l 676 954 z m 1024 818 l 60 818 l 60 619 l 672 619 l 60 199 l 60 0 l 1024 0 l 1024 199 l 411 199 l 1024 619 z "},"⁄":{"ha":724,"x_min":0,"x_max":0,"o":"m 664 1000 l 419 1000 l 58 -208 l 303 -208 z "},"*":{"ha":810,"x_min":0,"x_max":0,"o":"m 60 713 l 147 561 l 332 683 l 318 510 l 492 510 l 478 683 l 663 561 l 750 713 l 551 810 l 750 908 l 661 1060 l 478 938 l 492 1111 l 317 1110 l 331 938 l 147 1060 l 60 908 l 258 810 z "},"\\":{"ha":724,"x_min":0,"x_max":0,"o":"m 60 1000 l 421 -208 l 665 -208 l 304 1000 z "},"·":{"ha":357,"x_min":0,"x_max":0,"o":"m 60 529 l 60 343 l 297 343 l 297 529 z "},"•":{"ha":558,"x_min":0,"x_max":0,"o":"m 279 289 b 499 446 428 289 499 338 b 279 601 499 553 428 601 b 60 446 129 601 60 553 b 279 289 60 338 129 289 z "},":":{"ha":357,"x_min":0,"x_max":0,"o":"m 60 603 l 60 417 l 297 417 l 297 603 z m 60 186 l 60 0 l 297 0 l 297 186 z "},",":{"ha":357,"x_min":0,"x_max":0,"o":"m 60 186 l 60 0 l 142 0 l 71 -274 l 185 -274 l 297 0 l 297 186 z "},"…":{"ha":1043,"x_min":0,"x_max":0,"o":"m 60 186 l 60 0 l 297 0 l 297 186 z m 403 186 l 403 0 l 640 0 l 640 186 z m 746 186 l 746 0 l 983 0 l 983 186 z "},"!":{"ha":369,"x_min":0,"x_max":0,"o":"m 310 972 l 60 972 l 65 301 l 304 301 z m 65 186 l 65 0 l 303 0 l 303 186 z "},"¡":{"ha":369,"x_min":0,"x_max":0,"o":"m 65 647 l 303 647 l 303 833 l 65 833 z m 310 -139 l 304 532 l 65 532 l 60 -139 z "},"#":{"ha":1807,"x_min":0,"x_max":0,"o":"m 1719 568 l 1719 765 l 1461 765 l 1532 1000 l 1288 1000 l 1217 765 l 815 765 l 886 1000 l 642 1000 l 571 765 l 226 765 l 226 568 l 513 568 l 422 265 l 88 265 l 88 68 l 363 68 l 281 -208 l 525 -208 l 607 68 l 1008 68 l 926 -208 l 1171 -208 l 1253 68 l 1581 68 l 1581 265 l 1313 265 l 1403 568 z m 1068 265 l 667 265 l 757 568 l 1158 568 z "},".":{"ha":357,"x_min":0,"x_max":0,"o":"m 60 186 l 60 0 l 297 0 l 297 186 z "},"?":{"ha":1167,"x_min":0,"x_max":0,"o":"m 636 301 b 1107 703 660 485 1107 406 b 597 986 1107 914 911 986 b 60 606 288 986 60 914 l 310 606 b 611 776 310 744 408 776 b 857 675 790 776 857 740 b 399 301 857 497 399 621 z m 399 186 l 399 0 l 636 0 l 636 186 z "},"¿":{"ha":1167,"x_min":0,"x_max":0,"o":"m 768 647 l 768 833 l 531 833 l 531 647 z m 531 532 b 60 131 507 349 60 428 b 569 -153 60 -81 256 -153 b 1107 228 879 -153 1107 -81 l 857 228 b 556 57 857 89 758 57 b 310 158 376 57 310 93 b 768 532 310 336 768 213 z "},"\"":{"ha":738,"x_min":0,"x_max":0,"o":"m 310 1000 l 60 1000 l 79 556 l 290 556 z m 679 1000 l 429 1000 l 449 556 l 660 556 z "},"'":{"ha":369,"x_min":0,"x_max":0,"o":"m 310 1000 l 60 1000 l 79 556 l 290 556 z "},";":{"ha":357,"x_min":0,"x_max":0,"o":"m 60 603 l 60 417 l 297 417 l 297 603 z m 60 0 l 142 0 l 71 -274 l 185 -274 l 297 0 l 297 186 l 60 186 z "},"/":{"ha":724,"x_min":0,"x_max":0,"o":"m 664 1000 l 419 1000 l 58 -208 l 303 -208 z "},"_":{"ha":1564,"x_min":0,"x_max":0,"o":"m 88 -87 l 88 -274 l 1476 -274 l 1476 -87 z "},"{":{"ha":911,"x_min":0,"x_max":0,"o":"m 60 251 b 265 113 182 251 265 251 b 851 -278 265 -193 333 -278 l 851 -68 b 456 210 536 -68 456 -40 b 276 390 456 376 331 390 l 276 446 b 456 626 331 446 456 460 b 851 901 456 874 536 901 l 851 1111 b 265 724 354 1111 265 1029 b 60 585 265 585 182 585 z "},"}":{"ha":911,"x_min":0,"x_max":0,"o":"m 851 251 l 851 585 b 646 724 729 585 646 585 b 60 1111 646 1029 557 1111 l 60 901 b 456 626 375 901 456 874 b 635 446 456 460 581 446 l 635 390 b 456 210 581 390 456 376 b 60 -68 456 -40 375 -68 l 60 -278 b 646 113 578 -278 646 -193 b 851 251 646 251 729 251 z "},"[":{"ha":911,"x_min":0,"x_max":0,"o":"m 851 901 l 851 1111 l 60 1111 l 60 -278 l 851 -278 l 851 -68 l 310 -68 l 310 901 z "},"]":{"ha":911,"x_min":0,"x_max":0,"o":"m 851 1111 l 60 1111 l 60 901 l 601 901 l 601 -68 l 60 -68 l 60 -278 l 851 -278 z "},"(":{"ha":911,"x_min":0,"x_max":0,"o":"m 60 418 b 851 -278 60 -115 275 -278 l 851 -68 b 310 418 458 -68 310 24 b 851 901 310 811 457 901 l 851 1111 b 60 418 275 1111 60 950 z "},")":{"ha":911,"x_min":0,"x_max":0,"o":"m 851 418 b 60 1111 851 950 636 1111 l 60 901 b 601 418 454 901 601 811 b 60 -68 601 24 453 -68 l 60 -278 b 851 418 636 -278 851 -115 z "},"—":{"ha":1842,"x_min":0,"x_max":0,"o":"m 88 571 l 88 374 l 1754 374 l 1754 571 z "},"–":{"ha":1564,"x_min":0,"x_max":0,"o":"m 88 571 l 88 374 l 1476 374 l 1476 571 z "},"-":{"ha":1286,"x_min":0,"x_max":0,"o":"m 88 571 l 88 374 l 1199 374 l 1199 571 z "},"«":{"ha":1310,"x_min":0,"x_max":0,"o":"m 421 818 l 60 408 l 421 0 l 744 0 l 383 408 l 744 818 z m 926 818 l 565 408 l 926 0 l 1250 0 l 889 408 l 1250 818 z "},"»":{"ha":1342,"x_min":0,"x_max":0,"o":"m 415 818 l 92 818 l 453 408 l 92 0 l 415 0 l 776 408 z m 921 818 l 597 818 l 958 408 l 597 0 l 921 0 l 1282 408 z "},"‹":{"ha":804,"x_min":0,"x_max":0,"o":"m 421 818 l 60 408 l 421 0 l 744 0 l 383 408 l 744 818 z "},"›":{"ha":804,"x_min":0,"x_max":0,"o":"m 383 818 l 60 818 l 421 408 l 60 0 l 383 0 l 744 408 z "},"„":{"ha":682,"x_min":0,"x_max":0,"o":"m 60 0 l 142 0 l 71 -274 l 185 -274 l 297 0 l 297 186 l 60 186 z m 385 186 l 385 0 l 467 0 l 396 -274 l 510 -274 l 622 0 l 622 186 z "},"“":{"ha":786,"x_min":0,"x_max":0,"o":"m 94 556 l 332 556 l 388 1000 l 183 1000 z m 419 556 l 657 556 l 713 1000 l 508 1000 z "},"”":{"ha":754,"x_min":0,"x_max":0,"o":"m 367 1000 l 129 1000 l 74 556 l 278 556 z m 692 1000 l 454 1000 l 399 556 l 603 556 z "},"‘":{"ha":429,"x_min":0,"x_max":0,"o":"m 63 556 l 300 556 l 356 1000 l 151 1000 z "},"’":{"ha":440,"x_min":0,"x_max":0,"o":"m 367 1000 l 129 1000 l 74 556 l 278 556 z "},"‚":{"ha":357,"x_min":0,"x_max":0,"o":"m 60 186 l 60 0 l 142 0 l 71 -274 l 185 -274 l 297 0 l 297 186 z "}," ":{"ha":635,"x_min":0,"x_max":0,"o":""},"¢":{"ha":1301,"x_min":0,"x_max":0,"o":"m 740 267 l 740 707 b 971 569 864 696 944 656 l 1214 569 b 740 907 1179 786 1000 889 l 740 1111 l 574 1111 l 574 907 b 88 486 279 889 88 763 b 574 67 88 211 279 85 l 574 -139 l 740 -139 l 740 67 b 1214 404 1000 85 1179 188 l 971 404 b 740 267 944 318 864 278 z m 325 486 b 574 708 325 633 418 694 l 574 265 b 325 486 418 279 325 340 z "},"¤":{"ha":1308,"x_min":0,"x_max":0,"o":"m 1221 478 b 1051 811 1221 635 1158 743 l 1219 981 l 1107 1092 l 892 876 b 654 901 821 893 742 901 b 426 878 571 901 494 894 l 213 1092 l 100 981 l 264 817 b 88 478 153 749 88 639 b 269 138 88 315 154 204 l 100 -32 l 213 -143 l 432 76 b 654 56 499 63 574 56 b 885 79 739 56 815 63 l 1107 -143 l 1219 -32 l 1046 142 b 1221 478 1157 210 1221 318 z m 325 478 b 654 703 325 649 433 703 b 982 478 874 703 982 649 b 654 254 982 308 874 254 b 325 478 433 254 325 308 z "},"$":{"ha":1417,"x_min":0,"x_max":0,"o":"m 1329 299 b 797 581 1329 525 1128 561 l 797 785 b 1038 654 965 775 1038 742 l 1288 654 b 797 983 1288 872 1104 968 l 797 1111 l 631 1111 l 631 985 b 117 704 308 976 117 904 b 631 404 117 500 264 429 l 631 188 b 338 335 401 197 338 244 l 88 335 b 631 -12 88 76 289 -1 l 631 -139 l 797 -139 l 797 -12 b 1329 299 1117 -6 1329 57 z m 367 692 b 631 788 367 760 418 785 l 631 592 b 367 692 414 606 367 624 z m 797 185 l 797 396 b 1079 290 1035 381 1079 363 b 797 185 1079 219 1013 190 z "},"€":{"ha":1203,"x_min":0,"x_max":0,"o":"m 758 915 b 1115 874 861 915 963 901 l 1115 1083 b 721 1125 963 1111 861 1125 b 211 688 404 1125 254 978 l 88 688 l 88 538 l 199 538 b 199 488 199 521 199 504 l 199 438 l 88 438 l 88 288 l 211 288 b 721 -153 253 -12 403 -153 b 1115 -111 861 -153 963 -139 l 1115 99 b 758 57 963 71 861 57 b 461 288 569 57 490 124 l 954 288 l 954 438 l 449 438 b 449 488 449 454 449 471 l 449 538 l 954 538 l 954 688 l 463 688 b 758 915 490 850 569 915 z "},"£":{"ha":1203,"x_min":0,"x_max":0,"o":"m 786 915 b 1115 874 889 915 976 901 l 1115 1083 b 721 1125 963 1111 861 1125 b 271 589 331 1125 218 939 l 88 589 l 88 438 l 285 438 b 88 71 288 253 213 169 l 88 -139 l 1115 -139 l 1115 71 l 338 71 b 529 438 453 149 526 257 l 954 438 l 954 589 l 518 589 b 786 915 496 818 515 915 z "},"¥":{"ha":1525,"x_min":0,"x_max":0,"o":"m 1438 1111 l 1133 1111 l 763 668 l 392 1111 l 88 1111 l 586 519 l 219 519 l 219 369 l 638 369 l 638 269 l 219 269 l 219 119 l 638 119 l 638 -139 l 888 -139 l 888 119 l 1308 119 l 1308 269 l 888 269 l 888 369 l 1308 369 l 1308 519 l 939 519 z "},"+":{"ha":1286,"x_min":0,"x_max":0,"o":"m 1199 571 l 750 571 l 750 944 l 513 944 l 513 571 l 88 571 l 88 374 l 513 374 l 513 0 l 750 0 l 750 374 l 1199 374 z "},"−":{"ha":1286,"x_min":0,"x_max":0,"o":"m 88 571 l 88 374 l 1199 374 l 1199 571 z "},"×":{"ha":1236,"x_min":0,"x_max":0,"o":"m 1149 658 l 1050 829 l 618 579 l 186 829 l 88 658 l 421 467 l 88 274 l 186 103 l 618 353 l 1050 103 l 1149 274 l 815 467 z "},"÷":{"ha":1286,"x_min":0,"x_max":0,"o":"m 524 881 l 524 694 l 761 694 l 761 881 z m 88 571 l 88 374 l 1199 374 l 1199 571 z m 524 250 l 524 64 l 761 64 l 761 250 z "},"=":{"ha":1286,"x_min":0,"x_max":0,"o":"m 88 793 l 88 596 l 1199 596 l 1199 793 z m 88 349 l 88 151 l 1199 151 l 1199 349 z "},"≠":{"ha":1286,"x_min":0,"x_max":0,"o":"m 1199 596 l 1199 793 l 860 793 l 944 1076 l 700 1076 l 615 793 l 88 793 l 88 596 l 557 596 l 482 349 l 88 349 l 88 151 l 424 151 l 339 -132 l 583 -132 l 668 151 l 1199 151 l 1199 349 l 726 349 l 801 596 z "},">":{"ha":1161,"x_min":0,"x_max":0,"o":"m 88 833 l 88 624 l 883 472 l 88 321 l 88 111 l 1074 306 l 1074 639 z "},"<":{"ha":1161,"x_min":0,"x_max":0,"o":"m 1074 833 l 88 639 l 88 306 l 1074 111 l 1074 321 l 278 472 l 1074 624 z "},"≥":{"ha":1161,"x_min":0,"x_max":0,"o":"m 88 972 l 88 765 l 892 621 l 88 476 l 88 269 l 1074 471 l 1074 772 z m 88 0 l 1074 0 l 1074 199 l 88 199 z "},"≤":{"ha":1161,"x_min":0,"x_max":0,"o":"m 1074 972 l 88 772 l 88 471 l 1074 269 l 1074 476 l 269 621 l 1074 765 z m 88 0 l 1074 0 l 1074 199 l 88 199 z "},"±":{"ha":1286,"x_min":0,"x_max":0,"o":"m 750 751 l 750 972 l 513 972 l 513 751 l 88 751 l 88 554 l 513 554 l 513 333 l 750 333 l 750 554 l 1199 554 l 1199 751 z m 88 40 l 1199 40 l 1199 238 l 88 238 z "},"≈":{"ha":1286,"x_min":0,"x_max":0,"o":"m 88 528 l 314 528 b 440 763 314 710 351 763 b 893 528 614 763 644 528 b 1199 972 1125 528 1199 694 l 972 972 b 846 738 972 790 935 738 b 393 972 672 738 642 972 b 88 528 161 972 88 806 z m 88 0 l 314 0 b 440 235 314 182 351 235 b 893 0 614 235 644 0 b 1199 444 1125 0 1199 167 l 972 444 b 846 210 972 263 935 210 b 393 444 672 210 642 444 b 88 0 161 444 88 278 z "},"~":{"ha":1286,"x_min":0,"x_max":0,"o":"m 88 250 l 314 250 b 440 485 314 432 351 485 b 893 250 614 485 644 250 b 1199 694 1125 250 1199 417 l 972 694 b 846 460 972 513 935 460 b 393 694 672 460 642 694 b 88 250 161 694 88 528 z "},"¬":{"ha":1286,"x_min":0,"x_max":0,"o":"m 1199 571 l 88 571 l 88 374 l 960 374 l 960 101 l 1199 101 z "},"∅":{"ha":1603,"x_min":0,"x_max":0,"o":"m 1513 1051 l 1367 1197 l 1201 1032 b 803 1125 1096 1092 963 1125 b 104 488 347 1125 104 847 b 244 75 104 329 151 185 l 90 -79 l 236 -225 l 403 -58 b 803 -153 510 -118 643 -153 b 1500 488 1260 -153 1500 128 b 1361 900 1500 647 1453 790 z m 342 488 b 803 926 342 767 507 926 b 1047 878 899 926 981 910 l 404 235 b 342 488 363 303 342 388 z m 1261 488 b 803 46 1261 207 1097 46 b 557 96 707 46 625 63 l 1200 739 b 1261 488 1240 672 1261 588 z "},"∞":{"ha":1818,"x_min":0,"x_max":0,"o":"m 88 415 b 489 28 88 172 225 28 b 908 267 668 28 785 107 b 1329 28 1032 107 1150 28 b 1731 415 1593 28 1731 172 b 1329 808 1731 651 1581 808 b 910 567 1150 808 1033 728 b 489 808 786 728 668 808 b 88 415 238 808 88 651 z m 325 415 b 513 610 325 549 393 610 b 785 417 594 610 685 574 b 513 226 686 261 596 226 b 325 415 379 226 325 278 z m 1033 415 b 1306 610 1133 574 1222 610 b 1492 415 1425 610 1492 549 b 1306 226 1492 278 1439 226 b 1033 415 1219 226 1131 261 z "},"∫":{"ha":1388,"x_min":0,"x_max":0,"o":"m 88 -208 b 779 275 364 -208 681 -211 l 851 628 b 1300 913 910 924 1142 913 l 1300 1111 b 608 628 1024 1111 707 1114 l 535 275 b 88 -10 478 -21 246 -10 z "},"∏":{"ha":1818,"x_min":0,"x_max":0,"o":"m 1731 1000 l 88 1000 l 88 778 l 413 778 l 413 -208 l 650 -208 l 650 778 l 1168 778 l 1168 -208 l 1406 -208 l 1406 778 l 1731 778 z "},"∑":{"ha":1203,"x_min":0,"x_max":0,"o":"m 1115 1111 l 88 1111 l 88 913 l 579 451 l 88 -10 l 88 -208 l 1115 -208 l 1115 -10 l 401 -10 l 893 451 l 401 913 l 1115 913 z "},"√":{"ha":1883,"x_min":0,"x_max":0,"o":"m 1796 1111 l 1203 1111 l 835 0 l 600 488 l 88 488 l 88 289 l 443 289 l 674 -208 l 1007 -208 l 1382 913 l 1796 913 z "},"∂":{"ha":1374,"x_min":0,"x_max":0,"o":"m 393 1111 l 360 904 b 1046 382 707 878 1024 724 b 557 583 931 493 769 583 b 88 192 222 583 88 429 b 632 -208 88 -97 300 -208 b 1286 342 964 -208 1286 -60 b 393 1111 1286 806 869 1083 z m 615 -10 b 325 192 418 -10 325 51 b 576 385 325 340 428 385 b 1003 160 710 385 881 317 b 615 -10 935 43 794 -10 z "},"%":{"ha":2347,"x_min":0,"x_max":0,"o":"m 511 360 b 936 743 813 360 936 531 b 511 1125 936 954 813 1125 b 88 743 210 1125 88 954 b 511 360 88 531 210 360 z m 1475 1111 l 1231 1111 l 869 -97 l 1114 -97 z m 511 558 b 325 743 411 558 325 600 b 511 926 325 886 411 926 b 697 743 613 926 697 886 b 511 558 697 600 613 558 z m 1835 -111 b 2260 272 2136 -111 2260 60 b 1835 654 2260 483 2136 654 b 1411 272 1533 654 1411 483 b 1835 -111 1411 60 1533 -111 z m 1835 88 b 1649 272 1735 88 1649 129 b 1835 456 1649 415 1735 456 b 2021 272 1936 456 2021 415 b 1835 88 2021 129 1936 88 z "},"‰":{"ha":3294,"x_min":0,"x_max":0,"o":"m 511 360 b 936 743 813 360 936 531 b 511 1125 936 954 813 1125 b 88 743 210 1125 88 954 b 511 360 88 531 210 360 z m 1475 1111 l 1231 1111 l 869 -97 l 1114 -97 z m 511 558 b 325 743 411 558 325 600 b 511 926 325 886 411 926 b 697 743 613 926 697 886 b 511 558 697 600 613 558 z m 1835 -111 b 2260 272 2136 -111 2260 60 b 1835 654 2260 483 2136 654 b 1411 272 1533 654 1411 483 b 1835 -111 1411 60 1533 -111 z m 2782 -111 b 3207 272 3085 -111 3207 60 b 2782 654 3207 483 3085 654 b 2358 272 2482 654 2358 483 b 2782 -111 2358 60 2482 -111 z m 1835 88 b 1649 272 1735 88 1649 129 b 1835 456 1649 415 1735 456 b 2021 272 1936 456 2021 415 b 1835 88 2021 129 1936 88 z m 2782 88 b 2597 272 2682 88 2597 129 b 2782 456 2597 415 2682 456 b 2969 272 2883 456 2969 415 b 2782 88 2969 129 2883 88 z "},"↑":{"ha":1571,"x_min":0,"x_max":0,"o":"m 786 -153 b 1483 488 1243 -153 1483 128 b 786 1125 1483 847 1243 1125 b 88 488 331 1125 88 847 b 786 -153 88 128 331 -153 z m 878 42 l 693 42 l 693 611 l 519 431 l 388 564 l 785 958 l 1185 564 l 1051 431 l 878 611 z "},"↗":{"ha":1571,"x_min":0,"x_max":0,"o":"m 786 -153 b 1483 488 1243 -153 1483 128 b 786 1125 1483 847 1243 1125 b 88 488 331 1125 88 847 b 786 -153 88 128 331 -153 z m 551 124 l 421 253 l 824 656 l 565 651 l 575 839 l 1135 836 l 1138 275 l 949 267 l 954 525 z "},"→":{"ha":1571,"x_min":0,"x_max":0,"o":"m 786 -153 b 1483 488 1243 -153 1483 128 b 786 1125 1483 847 1243 1125 b 88 488 331 1125 88 847 b 786 -153 88 128 331 -153 z m 335 394 l 335 578 l 904 578 l 724 753 l 857 885 l 1251 488 l 857 88 l 724 219 l 904 394 z "},"↘":{"ha":1571,"x_min":0,"x_max":0,"o":"m 786 1125 b 88 485 331 1125 88 844 b 786 -153 88 125 331 -153 b 1483 485 1243 -153 1483 125 b 786 1125 1483 844 1243 1125 z m 551 849 l 954 447 l 949 706 l 1138 697 l 1135 136 l 575 133 l 565 321 l 824 317 l 421 719 z "},"↓":{"ha":1571,"x_min":0,"x_max":0,"o":"m 786 1125 b 88 485 331 1125 88 844 b 786 -153 88 125 331 -153 b 1483 485 1243 -153 1483 125 b 786 1125 1483 844 1243 1125 z m 878 931 l 878 361 l 1051 542 l 1185 408 l 785 14 l 388 408 l 519 542 l 693 361 l 693 931 z "},"↙":{"ha":1571,"x_min":0,"x_max":0,"o":"m 785 1125 b 88 485 328 1125 88 844 b 785 -153 88 125 328 -153 b 1483 485 1240 -153 1483 125 b 785 1125 1483 844 1240 1125 z m 1019 849 l 1150 719 l 747 317 l 1006 321 l 996 133 l 436 136 l 433 697 l 622 706 l 617 447 z "},"←":{"ha":1571,"x_min":0,"x_max":0,"o":"m 785 -153 b 1483 488 1240 -153 1483 128 b 785 1125 1483 847 1240 1125 b 88 488 328 1125 88 847 b 785 -153 88 128 328 -153 z m 1236 394 l 667 394 l 847 219 l 714 88 l 319 488 l 714 885 l 847 753 l 667 578 l 1236 578 z "},"↖":{"ha":1571,"x_min":0,"x_max":0,"o":"m 785 -153 b 1483 488 1240 -153 1483 128 b 785 1125 1483 847 1240 1125 b 88 488 328 1125 88 847 b 785 -153 88 128 328 -153 z m 1019 124 l 617 525 l 622 267 l 433 275 l 436 836 l 996 839 l 1006 651 l 747 656 l 1150 253 z "},"↔":{"ha":1571,"x_min":0,"x_max":0,"o":"m 786 -153 b 1483 488 1243 -153 1483 128 b 786 1125 1483 847 1243 1125 b 88 488 331 1125 88 847 b 786 -153 88 128 331 -153 z m 1322 485 l 1025 88 l 888 219 l 1032 401 l 543 401 l 688 219 l 550 88 l 250 483 l 550 885 l 688 753 l 543 571 l 1032 571 l 888 753 l 1025 885 z "},"↕":{"ha":1571,"x_min":0,"x_max":0,"o":"m 786 -153 b 1483 488 1243 -153 1483 128 b 786 1125 1483 847 1243 1125 b 88 488 331 1125 88 847 b 786 -153 88 128 331 -153 z m 788 993 l 1185 696 l 1051 557 l 871 701 l 871 274 l 1051 418 l 1185 279 l 788 -21 l 388 279 l 519 418 l 701 274 l 701 701 l 519 557 l 388 696 z "},"◊":{"ha":1288,"x_min":0,"x_max":0,"o":"m 803 1111 l 486 1111 l 88 486 l 486 -139 l 803 -139 l 1200 486 z m 644 -8 l 329 486 l 644 981 l 957 486 z "},"@":{"ha":1713,"x_min":0,"x_max":0,"o":"m 919 1125 b 88 372 401 1125 88 861 b 1251 -400 88 -218 396 -400 l 1265 -201 b 325 372 660 -201 325 -150 b 933 926 325 781 596 926 b 1383 646 1106 926 1363 901 b 1018 768 1304 728 1182 771 b 543 365 768 764 543 685 b 1018 -37 543 44 768 -40 b 1386 90 1183 -36 1307 7 l 1386 -24 l 1625 -24 l 1625 547 b 919 1125 1625 943 1429 1125 z m 1083 161 b 781 365 882 161 781 219 b 1083 569 781 511 882 569 b 1385 389 1275 569 1375 517 l 1385 343 b 1083 161 1375 214 1275 161 z "},"&":{"ha":1497,"x_min":0,"x_max":0,"o":"m 1438 174 l 1240 258 b 1388 449 1293 313 1343 376 l 1174 529 b 1017 358 1129 468 1076 410 b 744 492 904 410 814 454 b 1094 756 964 549 1094 624 b 686 986 1094 901 911 986 b 272 742 418 986 272 901 b 353 542 272 667 297 604 b 60 268 208 513 60 446 b 547 -14 60 96 200 -14 b 1072 124 747 -14 922 31 b 1331 0 1151 85 1238 44 z m 686 811 b 857 729 793 811 857 782 b 593 588 857 661 742 619 b 510 714 533 635 510 675 b 686 811 510 782 579 811 z m 557 185 b 297 307 399 185 297 219 b 481 435 297 375 379 410 b 829 240 567 375 681 314 b 557 185 747 206 657 185 z "},"¶":{"ha":1286,"x_min":0,"x_max":0,"o":"m 550 1000 b 88 718 290 1000 88 985 b 550 436 88 453 290 436 l 550 -208 l 789 -208 l 789 1000 z m 961 1000 l 961 -208 l 1199 -208 l 1199 1000 z "},"§":{"ha":1225,"x_min":0,"x_max":0,"o":"m 1021 269 b 1107 481 1079 343 1107 408 b 635 728 1107 632 999 700 b 325 849 368 749 325 763 b 575 950 325 929 390 950 b 890 818 796 950 890 928 l 1129 818 b 597 1125 1129 1056 906 1125 b 88 843 325 1125 88 1079 b 206 633 88 747 125 681 b 118 422 146 560 118 493 b 590 172 118 271 226 197 b 900 53 857 151 900 139 b 650 -49 900 -28 836 -49 b 335 83 431 -49 335 -26 l 97 83 b 628 -224 97 -153 319 -224 b 1138 58 900 -224 1138 -178 b 1021 269 1138 156 1101 222 z m 376 574 b 622 542 446 558 526 549 b 849 328 871 521 963 493 b 603 358 781 342 699 351 b 376 574 356 379 263 408 z "},"©":{"ha":1571,"x_min":0,"x_max":0,"o":"m 786 -153 b 1483 488 1243 -153 1483 128 b 786 1125 1483 847 1243 1125 b 88 488 331 1125 88 847 b 786 -153 88 128 331 -153 z m 786 -1 b 238 488 456 -1 238 171 b 786 974 238 803 454 974 b 1332 488 1118 974 1332 804 b 786 -1 1332 171 1117 -1 z m 383 486 b 788 179 383 267 535 179 b 1189 442 1022 179 1169 254 l 989 442 b 788 343 971 357 872 343 b 581 486 681 343 581 364 b 788 629 581 608 681 629 b 989 531 872 629 971 615 l 1189 531 b 788 793 1169 718 1022 793 b 383 486 535 793 383 706 z "},"®":{"ha":1108,"x_min":0,"x_max":0,"o":"m 554 1125 b 88 706 242 1125 88 950 b 554 286 88 461 242 286 b 1021 706 867 286 1021 461 b 554 1125 1021 950 867 1125 z m 554 397 b 199 706 336 397 199 497 b 554 1014 199 914 336 1014 b 910 706 771 1014 910 914 b 554 397 910 497 771 397 z m 789 754 b 649 889 789 836 732 889 l 358 889 l 358 521 l 453 521 l 453 619 l 606 619 l 665 521 l 778 521 l 710 631 b 789 754 758 650 789 694 z m 453 810 l 622 810 b 694 754 650 810 694 810 b 622 699 694 699 650 699 l 453 699 z "},"™":{"ha":1506,"x_min":0,"x_max":0,"o":"m 665 1110 l 88 1110 l 88 1008 l 315 1008 l 315 640 l 436 640 l 436 1008 l 665 1008 z m 1418 1110 l 1256 1110 l 1058 778 l 861 1110 l 699 1110 l 699 640 l 819 640 l 819 963 l 1014 640 l 1101 640 l 1297 963 l 1297 640 l 1418 640 z "},"°":{"ha":1024,"x_min":0,"x_max":0,"o":"m 511 360 b 936 743 813 360 936 531 b 511 1125 936 954 813 1125 b 88 743 210 1125 88 954 b 511 360 88 531 210 360 z m 511 558 b 325 743 396 558 325 607 b 511 926 325 879 396 926 b 697 743 628 926 697 879 b 511 558 697 607 628 558 z "},"|":{"ha":413,"x_min":0,"x_max":0,"o":"m 88 1000 l 88 -208 l 325 -208 l 325 1000 z "},"¦":{"ha":413,"x_min":0,"x_max":0,"o":"m 88 1000 l 88 521 l 325 521 l 325 1000 z m 88 271 l 88 -208 l 325 -208 l 325 271 z "},"†":{"ha":1286,"x_min":0,"x_max":0,"o":"m 1199 682 l 763 682 l 763 1000 l 525 1000 l 525 682 l 88 682 l 88 485 l 525 485 l 525 -208 l 763 -208 l 763 485 l 1199 485 z "},"‡":{"ha":1286,"x_min":0,"x_max":0,"o":"m 1199 485 l 1199 682 l 763 682 l 763 1000 l 525 1000 l 525 682 l 88 682 l 88 485 l 525 485 l 525 307 l 88 307 l 88 110 l 525 110 l 525 -208 l 763 -208 l 763 110 l 1199 110 l 1199 307 l 763 307 l 763 485 z "},"^":{"ha":1288,"x_min":0,"x_max":0,"o":"m 1200 486 l 803 1111 l 486 1111 l 88 486 l 329 486 l 644 981 l 957 486 z "},"̈":{"ha":0,"x_min":0,"x_max":0,"o":"m -694 1157 l -694 954 l -449 954 l -449 1157 z m -333 1157 l -333 954 l -87 954 l -87 1157 z "},"̇":{"ha":0,"x_min":0,"x_max":0,"o":"m -357 1157 l -357 954 l -87 954 l -87 1157 z "},"̀":{"ha":0,"x_min":0,"x_max":0,"o":"m -87 1096 l -628 1207 l -628 1043 l -87 932 z "},"́":{"ha":0,"x_min":0,"x_max":0,"o":"m -628 1096 l -628 932 l -87 1043 l -87 1207 z "},"̋":{"ha":0,"x_min":0,"x_max":0,"o":"m -746 1113 l -746 943 l -458 1054 l -458 1224 z m -375 1113 l -375 943 l -87 1054 l -87 1224 z "},"̂":{"ha":0,"x_min":0,"x_max":0,"o":"m -375 1207 l -662 1096 l -662 932 l -375 1043 l -87 932 l -87 1096 z "},"̌":{"ha":0,"x_min":0,"x_max":0,"o":"m -375 1099 l -662 1210 l -662 1046 l -375 935 l -87 1046 l -87 1210 z "},"̆":{"ha":0,"x_min":0,"x_max":0,"o":"m -718 1208 b -403 911 -718 967 -575 911 b -87 1208 -231 911 -87 967 l -239 1208 b -403 1054 -239 1096 -300 1054 b -568 1208 -506 1054 -568 1096 z "},"̊":{"ha":0,"x_min":0,"x_max":0,"o":"m -379 917 b -87 1100 -162 917 -87 985 b -379 1283 -87 1215 -162 1283 b -671 1100 -597 1283 -671 1215 b -379 917 -671 985 -597 917 z m -379 1026 b -521 1100 -469 1026 -521 1044 b -379 1174 -521 1156 -469 1174 b -239 1100 -289 1174 -239 1156 b -379 1026 -239 1044 -289 1026 z "},"̃":{"ha":0,"x_min":0,"x_max":0,"o":"m -893 931 l -690 931 b -614 1054 -690 1010 -672 1054 b -306 917 -503 1054 -465 917 b -87 1208 -150 917 -87 1054 l -290 1208 b -368 1085 -290 1129 -308 1085 b -675 1222 -479 1085 -517 1222 b -893 931 -832 1222 -893 1085 z "},"̄":{"ha":0,"x_min":0,"x_max":0,"o":"m -739 1110 l -739 946 l -87 946 l -87 1110 z "},"̒":{"ha":0,"x_min":0,"x_max":0,"o":"m -87 981 l -87 1131 l -165 1131 l -87 1283 l -190 1283 l -301 1131 l -301 981 z "},"̦":{"ha":0,"x_min":0,"x_max":0,"o":"m -301 -78 l -301 -228 l -224 -228 l -301 -381 l -199 -381 l -87 -228 l -87 -78 z "},"̧":{"ha":0,"x_min":0,"x_max":0,"o":"m -333 -65 l -312 0 l -474 0 l -493 -49 l -411 -129 b -267 -149 -303 -104 -267 -115 b -526 -201 -267 -201 -344 -228 l -526 -319 b -87 -161 -312 -346 -87 -319 b -333 -65 -87 -26 -250 -39 z "},"̨":{"ha":0,"x_min":0,"x_max":0,"o":"m -87 -157 b -310 -87 -203 -157 -310 -157 b -244 0 -310 -51 -274 -24 l -376 0 b -487 -157 -447 -46 -487 -92 b -87 -319 -487 -293 -347 -319 z "},"̵":{"ha":0,"x_min":0,"x_max":0,"o":"m -754 554 l -754 390 l -87 390 l -87 554 z "},"̶":{"ha":0,"x_min":0,"x_max":0,"o":"m -1476 554 l -1476 390 l -87 390 l -87 554 z "},"̷":{"ha":0,"x_min":0,"x_max":0,"o":"m -60 1000 l -304 1000 l -665 -208 l -421 -208 z "},"̸":{"ha":0,"x_min":0,"x_max":0,"o":"m -99 1000 l -304 1000 l -665 -208 l -460 -208 z "},"´":{"ha":715,"x_min":0,"x_max":0,"o":"m 88 1096 l 88 932 l 628 1043 l 628 1207 z "},"˘":{"ha":806,"x_min":0,"x_max":0,"o":"m 88 1208 b 403 911 88 967 231 911 b 718 1208 575 911 718 967 l 567 1208 b 403 1054 567 1096 506 1054 b 238 1208 300 1054 238 1096 z "},"ˇ":{"ha":750,"x_min":0,"x_max":0,"o":"m 375 1099 l 88 1210 l 88 1046 l 375 935 l 663 1046 l 663 1210 z "},"¸":{"ha":614,"x_min":0,"x_max":0,"o":"m 281 -65 l 301 0 l 140 0 l 121 -49 l 203 -129 b 347 -149 311 -104 347 -115 b 88 -201 347 -201 269 -228 l 88 -319 b 526 -161 301 -346 526 -319 b 281 -65 526 -26 364 -39 z "},"ˆ":{"ha":750,"x_min":0,"x_max":0,"o":"m 375 1207 l 88 1096 l 88 932 l 375 1043 l 663 932 l 663 1096 z "},"¨":{"ha":782,"x_min":0,"x_max":0,"o":"m 88 1157 l 88 954 l 333 954 l 333 1157 z m 449 1157 l 449 954 l 694 954 l 694 1157 z "},"˙":{"ha":444,"x_min":0,"x_max":0,"o":"m 88 1157 l 88 954 l 357 954 l 357 1157 z "},"`":{"ha":715,"x_min":0,"x_max":0,"o":"m 628 1096 l 88 1207 l 88 1043 l 628 932 z "},"˝":{"ha":833,"x_min":0,"x_max":0,"o":"m 88 1113 l 88 943 l 375 1054 l 375 1224 z m 458 1113 l 458 943 l 746 1054 l 746 1224 z "},"¯":{"ha":826,"x_min":0,"x_max":0,"o":"m 88 1110 l 88 946 l 739 946 l 739 1110 z "},"˛":{"ha":575,"x_min":0,"x_max":0,"o":"m 488 -157 b 265 -87 372 -157 265 -157 b 331 0 265 -51 301 -24 l 199 0 b 88 -157 128 -46 88 -92 b 488 -319 88 -293 228 -319 z "},"˚":{"ha":758,"x_min":0,"x_max":0,"o":"m 379 917 b 671 1100 596 917 671 985 b 379 1283 671 1215 596 1283 b 88 1100 161 1283 88 1215 b 379 917 88 985 161 917 z m 379 1026 b 238 1100 289 1026 238 1044 b 379 1174 238 1156 289 1174 b 519 1100 469 1174 519 1156 b 379 1026 519 1044 469 1026 z "},"˜":{"ha":981,"x_min":0,"x_max":0,"o":"m 88 931 l 290 931 b 367 1054 290 1010 308 1054 b 675 917 478 1054 515 917 b 893 1208 831 917 893 1054 l 690 1208 b 613 1085 690 1129 672 1085 b 306 1222 501 1085 464 1222 b 88 931 149 1222 88 1085 z "}}}
